<?xml version="1.0" encoding="UTF-8"?>
<svg width="273.33197px" height="80px" viewBox="0 0 273.33197 80" version="1.1" xmlns="http://www.w3.org/2000/svg" xmlns:xlink="http://www.w3.org/1999/xlink">
    <title>CredoPay_Logo</title>
    <defs>
        <linearGradient x1="0.00774941445%" y1="50.001097%" x2="100.00635%" y2="50.001097%" id="linearGradient-1">
            <stop stop-color="#3D6995" offset="0%"></stop>
            <stop stop-color="#3D6C8F" offset="2%"></stop>
            <stop stop-color="#3C777C" offset="10%"></stop>
            <stop stop-color="#3B7D71" offset="19%"></stop>
            <stop stop-color="#3B7F6D" offset="28%"></stop>
            <stop stop-color="#39B54A" offset="67%"></stop>
            <stop stop-color="#37B44A" offset="89%"></stop>
            <stop stop-color="#3A9F47" offset="100%"></stop>
        </linearGradient>
    </defs>
    <g id="Symbols" stroke="none" stroke-width="1" fill="none" fill-rule="evenodd">
        <g id="CredoPay_Logo" fill-rule="nonzero">
            <g id="Group-2">
                <path d="M39.905499,80 C39.4885764,80 39.0716538,80 38.6508164,79.9823836 C28.5272314,79.6809466 18.5817681,75.2846643 11.3688117,67.9170745 C3.73501781,60.1306048 -0.287404333,49.7290713 0.015990038,38.6267947 C0.305682728,28.505167 4.70000765,18.5616612 12.0793417,11.34479 C19.873641,3.72274041 30.2830039,-0.299681732 41.3852805,0.0174143197 C51.6341381,0.311021775 61.2899086,4.5428839 68.5733309,11.9339623 C75.9584526,19.3996509 80.0837201,29.4879395 80.0463425,39.9891333 C80.1140613,50.6314249 75.7216938,61.0642765 67.9959029,68.6139029 C60.4560635,75.98345 50.5203872,80 39.905499,80 Z M1.67193609,39.9676021 C1.71304113,50.6705726 5.95469017,60.5318683 13.6119726,67.7369953 C21.5726494,75.2259428 31.1188065,78.7551044 41.980325,78.2383553 C52.0021261,77.7587964 60.6263558,73.8362008 67.6083411,66.5801819 C75.2421349,58.6449511 78.8437197,49.0342003 78.3093542,38.0121765 C77.8239232,28.0412673 73.9169866,19.4542279 66.698158,12.4937738 C58.7883731,4.86976687 49.1560912,1.2544804 38.0616441,1.72816709 C17.7596673,2.62073376 1.77567739,19.4150802 1.67193609,39.9676021 Z" id="Shape" fill="url(#linearGradient-1)"></path>
                <g id="Group" transform="translate(13.652070, 19.091789)">
                    <path d="M29.9430958,24.3775717 C29.9430958,24.3775717 29.9430958,27.3625809 29.9430958,28.8560641 C29.9430958,29.903264 30.1055586,34.9533123 29.9528827,45.116045 C29.9528827,45.3431014 29.9352662,45.8715949 29.5985964,46.1397563 C29.4407961,46.2538732 29.2489791,46.3111423 29.0544439,46.3022191 C23.0746387,46.3491963 22.7673296,46.3335373 22.1546687,46.3022191 C21.9825578,46.299461 21.814303,46.250809 21.6672803,46.1612875 C21.0800654,45.78547 21.0800654,44.7617587 21.0800654,44.3741968 C21.0800654,39.8304583 21.0800654,35.2867198 21.0800654,30.7429814 L21.0800654,30.2986554" id="Path" fill="#3BB54A"></path>
                    <path d="M20.8706254,9.19023673 C20.3169638,8.91345877 19.7477143,8.66902786 19.1657448,8.45817547 C18.3470549,8.1585365 17.504277,7.92934283 16.6465928,7.77309141 C14.9691155,7.50688732 11.7668369,8.10976129 9.63916153,10.6700183 C7.73071306,12.9640712 7.23745254,16.1663499 8.2689934,18.7246495 C9.33185239,21.3495002 11.7746664,22.7353273 12.0937199,22.9114918 C12.1641856,22.9486821 12.3070746,23.02502 12.4988981,23.1189744 C13.1526641,23.4399852 15.3684217,24.4891426 17.889531,23.837334 C18.7115776,23.6221374 19.4871509,23.2579032 20.1777118,22.7627307 C23.4426267,20.5058681 28.901768,14.1502453 31.8495869,11.2415742 C32.4622477,10.6406576 33.3176241,9.82247145 34.6956218,9.32725354 C35.7622907,8.95133825 36.9050963,8.84378008 38.023173,9.01407226 C38.023173,9.01407226 39.6243123,9.26657467 41.8263682,11.0634523 C41.967775,11.1748354 42.0699478,11.3284376 42.1180183,11.5019061 C42.1325281,11.6626981 42.0969773,11.8240444 42.0162344,11.9638485 C41.779391,12.390558 32.851767,21.5002187 32.851767,21.5002187 C32.0120496,22.3516803 31.6147009,22.8371113 30.0703257,24.3834439 C27.7508268,26.7068575 26.8367289,27.419345 26.4687409,27.6992507 C25.3760828,28.5365397 24.2053927,29.2667462 22.9728548,29.8797754 C20.7073242,31.0405575 18.2035301,31.6603086 15.6581144,31.6903547 C14.8966924,31.6903547 9.98170356,31.6433776 5.78703171,28.2688492 C5.63044107,28.1435767 5.2800695,27.853884 4.84944523,27.4447909 C2.714181,25.4588014 1.18688686,22.907202 0.445333399,20.0869881 C-0.105784218,17.8223421 -0.145901989,15.4634172 0.327890416,13.1813407 C0.931964619,9.09022345 3.22304061,5.43955325 6.64436548,3.11647716 C7.92917825,2.24340971 9.32903336,1.55303411 10.8038044,1.06513974 C12.5265868,0.491969344 14.3280233,0.190189121 16.1435454,0.170615693 C17.4921823,0.156914011 19.396716,0.152999245 21.6477065,1.01424778 C23.0171795,1.53790426 24.2884203,2.28900176 25.4078393,3.23587753 C23.4362731,4.8246431 21.8793816,6.86781128 20.8706254,9.19023673 Z" id="Path" fill="#3E6799"></path>
                    <path d="M21.2973349,20.1359227 C21.0859849,19.4960509 20.9204933,18.8419338 20.802117,18.1785396 C20.645162,17.18839 20.5796398,16.1858994 20.6063787,15.1837436 C20.7296938,11.8561924 22.3836825,8.73808125 22.5187419,8.4894936 C24.9113491,4.02978147 29.2609089,0.953917795 34.2630401,0.184317374 C35.9380758,-0.0614391247 37.6400101,-0.0614391247 39.3150458,0.184317374 C40.4444558,0.346780166 41.8146239,0.554262768 43.4372944,1.30785524 L43.5136324,1.34308813 C44.9188812,2.00287676 46.2284852,2.84960917 47.4068672,3.86028272 C48.8416682,5.14643117 50.0227754,6.69003671 50.8890517,8.41119828 C52.0998788,11.2186045 52.5676951,14.2904186 52.2474755,17.3309928 C52.0262032,19.0183714 51.5907655,20.6706667 50.9516879,22.247939 C50.2055827,24.0256836 49.1288967,25.6456942 47.77877,27.0219962 C47.2302332,27.5685113 46.6413564,28.0729825 46.0171253,28.5311385 C45.190223,29.1519031 44.3091055,29.6969512 43.3844451,30.1596812 C41.0042673,31.3556422 38.6495355,31.5670396 37.6140799,31.6512071 C36.2880094,31.773939 34.9508172,31.6813997 33.654294,31.3771735 C32.106004,31.0072281 31.7243143,30.5766038 31.5481499,30.2888685 C31.3538508,29.9569097 31.2562224,29.5772434 31.2662867,29.192734 C32.4576805,25.1579151 33.0696889,23.1450729 33.102312,23.1542073 C33.102312,23.1542073 33.102312,23.1659516 33.102312,23.1894402 C33.102312,23.2129288 34.4979261,23.5437265 36.0109832,23.7668682 C38.0603632,24.0683052 39.8180932,23.1796533 40.297652,22.9114918 C40.3172259,22.9017049 40.465987,22.8175374 40.6382367,22.7157535 C42.3345135,21.6267822 43.6154069,19.9991238 44.2750544,18.0943722 C44.4473041,17.5795804 45.6197765,13.8762117 43.3355105,10.6974217 C43.0751786,10.3490075 41.5347181,8.27809623 38.7787228,7.69088132 C37.6840234,7.47967838 36.5572592,7.49968011 35.4707455,7.74960281 C34.4857792,7.974308 33.5503492,8.37767074 32.7108354,8.9396917 C29.8256528,10.9146912 23.9946087,17.5384754 21.2973349,20.1359227 Z" id="Path" fill="#39B54A"></path>
                </g>
            </g>
            <path d="M97.2352907,26.3774917 C95.3248849,26.3774917 93.8457558,27.0951988 92.7979034,28.530613 C91.750051,29.9660273 91.2280822,31.9658203 91.231997,34.529992 C91.231997,39.868428 93.2350523,42.537646 97.2411629,42.537646 C98.9219025,42.537646 100.957581,42.1174612 103.348198,41.2770914 L103.348198,45.5324421 C101.257646,46.3761922 99.0196863,46.7941044 96.7655188,46.7616786 C93.2839869,46.7616786 90.620641,45.7053443 88.7754813,43.5926755 C86.9303215,41.4800067 86.0083941,38.4486729 86.0096976,34.4986739 C86.0096976,32.0088827 86.462507,29.828358 87.3681229,27.9570998 C88.2051588,26.16035 89.5665264,24.6590925 91.273102,23.6508571 C92.9695006,22.6499819 94.9588543,22.1501968 97.2411629,22.1514992 C99.5665339,22.1514992 101.902344,22.7139231 104.248594,23.8387659 L102.60635,27.9570998 C101.725972,27.5375401 100.823613,27.1657502 99.9032038,26.8433488 C99.0467124,26.5380445 98.1445647,26.3805162 97.2352907,26.3774917 Z" id="Path" fill="#010101"></path>
            <path d="M113.516803,37.2487971 L113.516803,46.4347957 L108.427607,46.4347957 L108.427607,22.4960011 L115.401763,22.4960011 C118.654933,22.4960011 121.061862,23.0884357 122.622549,24.2733049 C124.183235,25.4581741 124.966189,27.2563567 124.971408,29.6678526 C124.991054,31.0120149 124.583986,32.3277905 123.808723,33.426028 C122.970746,34.5724017 121.831957,35.4645997 120.518362,36.0039015 C124.119947,41.3867048 126.468806,44.8636696 127.564941,46.4347957 L121.93355,46.4347957 L116.219949,37.2487971 L113.516803,37.2487971 Z M113.516803,33.1226336 L115.153175,33.1226336 C116.758229,33.1226336 117.942446,32.8551246 118.705825,32.3201066 C119.469205,31.7850886 119.851547,30.9447188 119.852852,29.7989972 C119.852852,28.6637151 119.461375,27.8559683 118.678422,27.375757 C117.895469,26.8955457 116.686458,26.6554401 115.051391,26.6554401 L113.516803,26.6554401 L113.516803,33.1226336 Z" id="Shape" fill="#010101"></path>
            <polygon id="Path" fill="#010101" points="144.35733 46.4347957 130.571481 46.4347957 130.571481 22.4960011 144.35733 22.4960011 144.35733 26.6554401 135.646975 26.6554401 135.646975 31.9110135 143.752499 31.9110135 143.752499 36.0704525 135.646975 36.0704525 135.646975 42.245996 144.35733 42.245996"></polygon>
            <path d="M169.212181,34.2363846 C169.212181,38.1759442 168.090599,41.1942288 165.847438,43.2912385 C163.604277,45.3882482 160.365461,46.4361006 156.130989,46.4347969 L149.352572,46.4347969 L149.352572,22.4960011 L156.866965,22.4960011 C160.773902,22.4960011 163.808498,23.527542 165.970753,25.5906237 C168.133009,27.6537054 169.213485,30.5356257 169.212181,34.2363846 Z M163.940947,34.3675292 C163.940947,29.2248315 161.670383,26.6541352 157.129254,26.6554396 L154.426108,26.6554396 L154.426108,42.245996 L156.602718,42.245996 C161.493566,42.245996 163.939642,39.6198404 163.940947,34.3675292 Z" id="Shape" fill="#010101"></path>
            <path d="M195.901099,34.4321229 C195.901099,38.3938662 194.918491,41.4395542 192.953279,43.5691869 C190.988066,45.6988196 188.172044,46.7629836 184.505213,46.7616798 C180.837078,46.7616798 178.021056,45.6975147 176.057148,43.5691869 C174.093241,41.4408591 173.110634,38.3840792 173.109329,34.3988474 C173.109329,30.4149204 174.094546,27.3724947 176.064978,25.2715703 C178.03541,23.1706458 180.859914,22.1201836 184.538489,22.1201836 C188.215759,22.1201836 191.029171,23.1784753 192.978725,25.2950589 C194.928278,27.4116424 195.902402,30.4573304 195.901099,34.4321229 Z M178.431414,34.4321229 C178.431414,37.1059081 178.939069,39.1200553 179.954298,40.4745643 C180.969527,41.8290734 182.486499,42.5056755 184.505213,42.5043724 C188.550472,42.5043724 190.573101,39.8136213 190.573101,34.4321229 C190.573101,29.0506245 188.558954,26.3546556 184.530659,26.3442162 C182.51064,26.3442162 180.987796,27.0234281 179.962127,28.3818519 C178.936459,29.7402757 178.426234,31.7570327 178.431414,34.4321229 L178.431414,34.4321229 Z" id="Shape" fill="#010101"></path>
            <path d="M217.399035,29.9634174 C217.399035,32.5393335 216.594551,34.5091133 214.985582,35.8727568 C213.376613,37.2364003 211.086475,37.9188745 208.115168,37.9201795 L205.938558,37.9201795 L205.938558,46.4347957 L200.863064,46.4347957 L200.863064,22.4960011 L208.508602,22.4960011 C211.413358,22.4960011 213.621286,23.1210588 215.132386,24.3711741 C216.643486,25.6212894 217.399035,27.4853705 217.399035,29.9634174 Z M205.938558,33.7607405 L207.608205,33.7607405 C209.174112,33.7607405 210.342017,33.4527789 211.111921,32.8368557 C211.881825,32.2209325 212.269387,31.3224937 212.274607,30.1415393 C212.274607,28.9540602 211.948376,28.0758477 211.295915,27.5069017 C210.643454,26.9379557 209.625615,26.6541352 208.242398,26.6554356 L205.932686,26.6554356 L205.938558,33.7607405 Z" id="Shape" fill="#010101"></path>
            <path d="M236.57356,46.4347957 L234.837361,40.7368536 L226.111347,40.7368536 L224.375149,46.4347957 L218.90622,46.4347957 L227.354286,22.398132 L233.55919,22.398132 L242.04053,46.4347957 L236.57356,46.4347957 Z M233.625741,36.4795455 C232.020687,31.3159691 231.117681,28.3962061 230.916723,27.7202565 C230.720984,27.0430019 230.568308,26.506679 230.482184,26.1152024 C230.122025,27.5127738 229.090484,30.9675549 227.387561,36.4795455 L233.625741,36.4795455 Z" id="Shape" fill="#010101"></path>
            <polygon id="Path" fill="#010101" points="252.5047 32.3533821 257.497984 22.4960011 262.966913 22.4960011 255.035596 37.1176524 255.035596 46.4347957 249.99142 46.4347957 249.99142 37.2820726 242.050317 22.4960011 247.552521 22.4960011"></polygon>
            <polygon id="Path" fill="#010101" points="94.4460199 67.9894977 93.4281807 67.9894977 93.4281807 59.7156396 90.6584837 59.7156396 90.6584837 58.762394 97.2157169 58.762394 97.2157169 59.7156396 94.4460199 59.7156396"></polygon>
            <path d="M99.5469601,64.1510695 L99.5469601,67.9894977 L98.5310783,67.9894977 L98.5310783,58.762394 L100.928873,58.762394 C102.003476,58.762394 102.794259,58.9777062 103.307093,59.4122452 C103.819927,59.8467842 104.076344,60.4966354 104.076344,61.3696282 C104.076344,62.5910353 103.48913,63.415746 102.3147,63.8437604 L104.690963,67.9914551 L103.487172,67.9914551 L101.381028,64.1510695 L99.5469601,64.1510695 Z M99.5469601,63.2291421 L100.942574,63.2291421 C101.658976,63.2291421 102.185512,63.080381 102.520225,62.778944 C102.854937,62.477507 103.023272,62.0273089 103.023272,61.424435 C103.023272,60.821561 102.85298,60.3752777 102.512395,60.1051588 C102.171811,59.8350399 101.623744,59.7019379 100.870151,59.7019379 L99.5469601,59.7019379 L99.5469601,63.2291421 Z" id="Shape" fill="#010101"></path>
            <path d="M112.708404,58.762394 L112.708404,64.7324123 C112.708404,65.7841795 112.406967,66.6108476 111.804093,67.2124166 C111.201219,67.8139857 110.373898,68.1147702 109.322131,68.1147702 C108.269059,68.1147702 107.454788,67.8120283 106.879317,67.2065445 C106.303846,66.6010606 106.015459,65.7678679 106.014154,64.7069663 L106.014154,58.762394 L107.031993,58.762394 L107.031993,64.7813469 C107.031993,65.5525558 107.227731,66.1443379 107.619208,66.5566933 C108.010684,66.9690487 108.597899,67.1752263 109.380852,67.1752263 C110.118133,67.1752263 110.686427,66.9677437 111.085733,66.5527785 C111.485039,66.1378133 111.680778,65.5434213 111.672948,64.7696026 L111.672948,58.762394 L112.708404,58.762394 Z" id="Path" fill="#010101"></path>
            <path d="M119.95855,65.5388541 C119.995036,66.2691295 119.684458,66.973735 119.12079,67.439473 C118.563589,67.8935859 117.806082,68.1206423 116.848269,68.1206423 C115.810856,68.1206423 115.012896,67.9797108 114.454389,67.6978476 L114.454389,66.662392 C114.832118,66.8280943 115.225582,66.9553143 115.628819,67.0421243 C116.041512,67.1333288 116.46281,67.179921 116.885459,67.1810985 C117.562714,67.1810985 118.073591,67.0440817 118.416133,66.7739628 C118.759329,66.5004326 118.950732,66.0790563 118.930924,65.640638 C118.941081,65.3680969 118.878235,65.0977913 118.748888,64.8576848 C118.594384,64.6227455 118.384713,64.4292032 118.138184,64.2939585 C117.722546,64.0614013 117.287716,63.8649422 116.838482,63.7067436 C116.024211,63.4000869 115.442868,63.0360137 115.094454,62.6145239 C114.728401,62.1461724 114.542293,61.562155 114.569875,60.9683647 C114.54417,60.3141468 114.825881,59.6855488 115.331297,59.2693562 C115.836302,58.8478664 116.505727,58.637774 117.339572,58.6390789 C118.166774,58.6301063 118.985896,58.8024828 119.739324,59.1440837 L119.422227,60.0777554 C118.761497,59.7722102 118.043964,59.6088312 117.316083,59.5981966 C116.865635,59.5710252 116.419633,59.7003311 116.053571,59.9642272 C115.749336,60.2114277 115.580757,60.5885516 115.599458,60.980109 C115.555154,61.5343873 115.842268,62.0625538 116.33152,62.3267886 C116.717852,62.5547543 117.12564,62.744225 117.549012,62.8924723 C118.467025,63.2369717 119.097302,63.6088744 119.441801,64.0023084 C119.798738,64.4326302 119.982921,64.9802964 119.95855,65.5388541 Z" id="Path" fill="#010101"></path>
            <polygon id="Path" fill="#010101" points="124.439 67.9894977 123.421161 67.9894977 123.421161 59.7156396 120.651464 59.7156396 120.651464 58.762394 127.218484 58.762394 127.218484 59.7156396 124.439 59.7156396"></polygon>
            <polygon id="Path" fill="#010101" points="133.3999 67.9894977 128.524059 67.9894977 128.524059 58.762394 133.3999 58.762394 133.3999 59.7156396 129.541898 59.7156396 129.541898 62.686947 133.166971 62.686947 133.166971 63.6343204 129.541898 63.6343204 129.541898 67.0284226 133.3999 67.0284226"></polygon>
            <path d="M142.31775,63.2859062 C142.31775,64.8100552 141.92626,65.9746981 141.143307,66.779835 C140.360354,67.5849719 139.232901,67.9881928 137.760949,67.9894977 L135.337709,67.9894977 L135.337709,58.762394 L138.017366,58.762394 C139.37579,58.762394 140.432777,59.1597428 141.188327,59.9544403 C141.943877,60.7491378 142.320347,61.8596265 142.31775,63.2859062 Z M141.241176,63.3250539 C141.241176,62.1219158 140.955398,61.214995 140.383842,60.6042915 C139.812287,59.993588 138.964087,59.6888887 137.839244,59.6901894 L136.36142,59.6901894 L136.36142,67.0616981 L137.592614,67.0616981 C138.804887,67.0616981 139.718332,66.7472119 140.33295,66.1182395 C140.947569,65.4892671 141.250311,64.5582052 141.241176,63.3250539 Z" id="Shape" fill="#010101"></path>
            <path d="M152.995263,61.449881 C152.995263,62.3829002 152.693172,63.1006073 152.088993,63.6030023 C151.484814,64.1053973 150.620303,64.3592046 149.49546,64.3644243 L148.467834,64.3644243 L148.467834,67.9953698 L147.449995,67.9953698 L147.449995,58.762394 L149.716645,58.762394 C151.903694,58.762394 152.996566,59.658223 152.995263,61.449881 Z M148.467834,63.4385821 L149.381932,63.4385821 C150.283633,63.4385821 150.936094,63.2846013 151.339315,62.9766397 C151.742536,62.671288 151.942189,62.1780274 151.942189,61.5007729 C151.942189,60.8900694 151.746451,60.4359565 151.374548,60.1306048 C151.002645,59.825253 150.405644,59.6843215 149.612903,59.6843215 L148.477621,59.6843215 L148.467834,63.4385821 Z" id="Shape" fill="#010101"></path>
            <path d="M160.323703,67.9894977 L159.235398,65.0534231 L155.729725,65.0534231 L154.653165,67.9894977 L153.623581,67.9894977 L157.08032,58.7232464 L157.935696,58.7232464 L161.376776,67.9894977 L160.323703,67.9894977 Z M158.928089,64.0884333 L157.900463,61.2326114 C157.769971,60.872453 157.634259,60.4287795 157.493328,59.901591 C157.392165,60.351721 157.266709,60.7960446 157.11751,61.2326114 L156.087927,64.0923481 L158.928089,64.0884333 Z" id="Shape" fill="#010101"></path>
            <polygon id="Path" fill="#010101" points="164.800238 63.3739885 167.133439 58.762394 168.233488 58.762394 165.31503 64.4094441 165.31503 67.9894977 164.285447 67.9894977 164.285447 64.4662082 161.372861 58.7682662 162.484654 58.7682662"></polygon>
            <path d="M173.31094,67.9894977 L170.343547,59.809594 L170.294613,59.809594 C170.350724,60.462055 170.37878,61.231959 170.37878,62.119306 L170.37878,67.9914551 L169.439236,67.9914551 L169.439236,58.762394 L170.971867,58.762394 L173.741564,66.3726993 L173.788541,66.3726993 L176.581727,58.762394 L178.110443,58.762394 L178.110443,67.9894977 L177.094561,67.9894977 L177.094561,62.042968 C177.094561,61.3617987 177.122617,60.6212555 177.178729,59.8213383 L177.129794,59.8213383 L174.138913,67.9894977 L173.31094,67.9894977 Z" id="Path" fill="#010101"></path>
            <polygon id="Path" fill="#010101" points="185.376249 67.9894977 180.500408 67.9894977 180.500408 58.762394 185.376249 58.762394 185.376249 59.7156396 181.518247 59.7156396 181.518247 62.686947 185.14332 62.686947 185.14332 63.6343204 181.518247 63.6343204 181.518247 67.0284226 185.376249 67.0284226"></polygon>
            <path d="M194.145325,67.9894977 L192.986554,67.9894977 L188.204667,60.2539199 L188.15769,60.2539199 C188.220326,61.1673653 188.252297,62.000558 188.253602,62.7534981 L188.253602,67.9992846 L187.310143,67.9992846 L187.310143,58.762394 L188.459127,58.762394 L193.225355,66.4744832 L193.274289,66.4744832 C193.274289,66.3589976 193.246886,65.9949244 193.219483,65.3783487 C193.192079,64.7617731 193.182292,64.3213619 193.190122,64.0571152 L193.190122,58.762394 L194.14141,58.762394 L194.145325,67.9894977 Z" id="Path" fill="#010101"></path>
            <polygon id="Path" fill="#010101" points="199.25018 67.9894977 198.232341 67.9894977 198.232341 59.7156396 195.462644 59.7156396 195.462644 58.762394 202.019877 58.762394 202.019877 59.7156396 199.25018 59.7156396"></polygon>
            <path d="M212.053422,61.449881 C212.053422,62.3829002 211.751333,63.1006073 211.147154,63.6030023 C210.542975,64.1053973 209.679117,64.3592046 208.555579,64.3644243 L207.525995,64.3644243 L207.525995,67.9953698 L206.510114,67.9953698 L206.510114,58.762394 L208.776763,58.762394 C210.961203,58.762394 212.053422,59.658223 212.053422,61.449881 Z M207.525995,63.4385821 L208.44988,63.4385821 C209.350276,63.4385821 210.002737,63.2846013 210.407263,62.9766397 C210.810484,62.671288 211.012095,62.1780274 211.012095,61.5007729 C211.012095,60.8900694 210.822228,60.4333467 210.442496,60.1306048 C210.064721,59.8330826 209.463805,59.6843215 208.680851,59.6843215 L207.543612,59.6843215 L207.525995,63.4385821 Z" id="Shape" fill="#010101"></path>
            <path d="M219.381864,67.9894977 L218.293559,65.0534231 L214.787886,65.0534231 L213.711326,67.9894977 L212.6837,67.9894977 L216.140438,58.7232464 L216.995815,58.7232464 L220.434937,67.9894977 L219.381864,67.9894977 Z M217.976463,64.0884333 L216.960582,61.2326114 C216.830089,60.872453 216.694378,60.4287795 216.553446,59.901591 C216.452474,60.3519706 216.326352,60.7963403 216.175671,61.2326114 L215.148045,64.0923481 L217.976463,64.0884333 Z" id="Shape" fill="#010101"></path>
            <path d="M222.654609,64.1510695 L222.654609,67.9894977 L221.638727,67.9894977 L221.638727,58.762394 L224.036521,58.762394 C225.109167,58.762394 225.901907,58.9790111 226.414742,59.4122452 C226.927576,59.8454793 227.183341,60.4979403 227.182036,61.3696282 C227.182036,62.5910353 226.594821,63.415746 225.420391,63.8437604 L227.794697,67.9914551 L226.592864,67.9914551 L224.474975,64.1530269 L222.654609,64.1510695 Z M222.654609,63.2291421 L224.048266,63.2291421 C224.766625,63.2291421 225.293161,63.080381 225.627874,62.778944 C225.962586,62.477507 226.130921,62.0273089 226.130921,61.424435 C226.130921,60.821561 225.958671,60.3752777 225.618087,60.1051588 C225.277502,59.8350399 224.729435,59.7019379 223.975842,59.7019379 L222.654609,59.7019379 L222.654609,63.2291421 Z" id="Shape" fill="#010101"></path>
            <polygon id="Path" fill="#010101" points="231.903244 67.9894977 230.885405 67.9894977 230.885405 59.7156396 228.115708 59.7156396 228.115708 58.762394 234.678813 58.762394 234.678813 59.7156396 231.909116 59.7156396"></polygon>
            <path d="M242.819569,67.9894977 L241.658841,67.9894977 L236.878911,60.2539199 L236.831934,60.2539199 C236.89457,61.1673653 236.926541,62.000558 236.927846,62.7534981 L236.927846,67.9992846 L235.988302,67.9992846 L235.988302,58.762394 L237.137286,58.762394 L241.903514,66.4744832 L241.952448,66.4744832 C241.952448,66.3589976 241.925045,65.9949244 241.897642,65.3783487 C241.870238,64.7617731 241.860451,64.3213619 241.868281,64.0571152 L241.868281,58.762394 L242.819569,58.762394 L242.819569,67.9894977 Z" id="Path" fill="#010101"></path>
            <polygon id="Path" fill="#010101" points="250.099076 67.9894977 245.223235 67.9894977 245.223235 58.762394 250.099076 58.762394 250.099076 59.7156396 246.241074 59.7156396 246.241074 62.686947 249.866148 62.686947 249.866148 63.6343204 246.241074 63.6343204 246.241074 67.0284226 250.099076 67.0284226"></polygon>
            <path d="M253.054725,64.1510695 L253.054725,67.9894977 L252.036886,67.9894977 L252.036886,58.762394 L254.436637,58.762394 C255.509283,58.762394 256.301371,58.9790111 256.8129,59.4122452 C257.32443,59.8454793 257.580847,60.4979403 257.582152,61.3696282 C257.582152,62.5910353 256.994937,63.415746 255.820507,63.8437604 L258.194813,67.9914551 L256.99298,67.9914551 L254.875091,64.1530269 L253.054725,64.1510695 Z M253.054725,63.2291421 L254.448382,63.2291421 C255.166741,63.2291421 255.69132,63.080381 256.02799,62.778944 C256.36466,62.477507 256.52908,62.0273089 256.52908,61.424435 C256.52908,60.821561 256.358787,60.3752777 256.018203,60.1051588 C255.677618,59.8350399 255.129551,59.7019379 254.375958,59.7019379 L253.054725,59.7019379 L253.054725,63.2291421 Z" id="Shape" fill="#010101"></path>
            <path d="M266.361015,18.778976 C262.505657,18.7926483 259.365922,15.6845565 259.340588,11.8292579 C259.315254,7.97395937 262.413871,4.82487338 266.269075,4.78792238 C270.12428,4.75097138 273.282688,7.84008562 273.331256,11.6951615 C273.35795,13.5622805 272.635828,15.3623311 271.32615,16.6933412 C270.016471,18.0243513 268.228321,18.7754581 266.361015,18.778976 L266.361015,18.778976 Z M266.347313,5.69378695 C262.987838,5.68205513 260.253489,8.39320592 260.236558,11.7526595 C260.219784,15.112113 262.926795,17.8505601 266.286219,17.8724952 C269.645643,17.8944303 272.388183,15.1915655 272.4152,11.8321783 C272.429803,10.2119571 271.797462,8.65285078 270.658379,7.5005399 C269.519297,6.34822902 267.967595,5.69792995 266.347313,5.69378695 L266.347313,5.69378695 Z" id="Shape" fill="#000000"></path>
            <path d="M263.714633,8.18753112 C263.994539,8.18753112 264.250956,8.18753112 264.497586,8.18753112 C265.476278,8.2012328 266.454969,8.15034084 267.412129,8.24625261 C269.346024,8.44199091 269.894091,10.3347803 269.220751,11.6716729 C268.991332,12.1086563 268.596627,12.435697 268.124617,12.5798987 C268.011089,12.6210037 267.895603,12.658194 267.746842,12.7090859 L269.899963,15.1558147 C269.438021,15.1558147 269.062203,15.1362409 268.690301,15.1558147 C268.42547,15.1857141 268.165095,15.0704906 268.009131,14.8543777 C267.492382,14.2299726 266.944315,13.6310133 266.421694,13.0144377 C266.317966,12.8782421 266.151884,12.8044281 265.981282,12.8186994 C265.660272,12.8324011 265.337303,12.8186994 264.979102,12.8186994 L264.979102,15.1381983 L263.698974,15.1381983 L263.714633,8.18753112 Z M265.014335,11.6149088 C265.809033,11.6149088 266.580242,11.6462269 267.363195,11.6012071 C267.754671,11.5777185 268.022833,11.2860685 268.146148,10.8985066 C268.269892,10.5655139 268.223644,10.1931141 268.022207,9.90050517 C267.820771,9.60789627 267.489408,9.43177408 267.134181,9.42851196 C266.460841,9.4011086 265.783587,9.42851196 265.10829,9.42851196 C265.076782,9.43292002 265.0463,9.44285968 265.01825,9.45787271 L265.014335,11.6149088 Z" id="Shape" fill="#000000"></path>
        </g>
    </g>
</svg>