<?xml version="1.0" encoding="UTF-8"?>
<svg width="21px" height="19px" viewBox="0 0 21 19" version="1.1" xmlns="http://www.w3.org/2000/svg" xmlns:xlink="http://www.w3.org/1999/xlink">
    <title>i-error</title>
    <g id="🔵-Payment_Method" stroke="none" stroke-width="1" fill="none" fill-rule="evenodd">
        <g id="FAILED" transform="translate(-907.000000, -649.000000)" fill="#EA534C" fill-rule="nonzero">
            <g id="Group-8" transform="translate(792.000000, 190.000000)">
                <g id="i-error" transform="translate(115.000000, 459.500000)">
                    <path d="M10.2662501,0.00522490697 C10.1403905,0.0245879565 10.0306666,0.10042667 9.96935006,0.211764102 L0.0554687082,17.3803347 C-0.0187563149,17.5094217 -0.0187563149,17.6675534 0.0570821924,17.7950265 C0.131307422,17.9225001 0.268462253,18.0015657 0.416912299,17.9999765 L20.244675,17.9999765 C20.393125,18.0015657 20.5302799,17.9225001 20.6045051,17.7950265 C20.6803438,17.6675534 20.6803438,17.5094217 20.6061186,17.3803347 L10.6922372,0.211764102 C10.6083307,0.0600870871 10.4372906,-0.0222059766 10.2662501,0.00522490697 Z M10.3307936,1.24446008 L19.5217878,17.1737955 L1.13979948,17.1737955 L10.3307936,1.24446008 Z M9.85317176,6.39503124 C9.76442435,6.39503124 9.71117606,6.44827953 9.71117606,6.53702694 L9.71117606,12.5137549 C9.71117606,12.6025023 9.76442435,12.6686593 9.85317176,12.6686593 L10.8084155,12.6686593 C10.8971629,12.6686593 10.9504112,12.6025023 10.9504112,12.5137549 L10.9504112,6.53702694 C10.9504112,6.44827953 10.8971629,6.39503124 10.8084155,6.39503124 L9.85317176,6.39503124 Z M9.76281086,13.8562597 C9.70794909,13.8772362 9.68535866,13.9320984 9.68535866,13.9982554 L9.68535866,15.0825861 C9.68535866,15.1713335 9.73860695,15.2245818 9.82735436,15.2245818 L10.8342329,15.2245818 C10.9229803,15.2245818 10.9762286,15.1713335 10.9762286,15.0825861 L10.9762286,13.9982554 C10.9762286,13.9095079 10.9229803,13.8562597 10.8342329,13.8562597 L9.82735436,13.8562597 C9.80476434,13.8562597 9.78056043,13.8498053 9.76281086,13.8562597 Z" id="Shape"></path>
                </g>
            </g>
        </g>
    </g>
</svg>