<?xml version="1.0" encoding="UTF-8"?>
<svg width="57px" height="20px" viewBox="0 0 57 20" version="1.1" xmlns="http://www.w3.org/2000/svg" xmlns:xlink="http://www.w3.org/1999/xlink">
    <title>Group 11</title>
    <g id="🔵-Payment_Method" stroke="none" stroke-width="1" fill="none" fill-rule="evenodd">
        <g id="1" transform="translate(-1249.000000, -393.000000)">
            <g id="Group-8" transform="translate(792.000000, 190.000000)">
                <g id="Group-10" transform="translate(0.000000, 173.000000)">
                    <g id="Group" transform="translate(392.000000, 0.000000)">
                        <g id="Group-11" transform="translate(65.000000, 30.000000)">
                            <path d="M0.454093192,17.1829963 L0.878205117,17.1829963 L0.484231282,18.8282456 C0.425407539,19.0697134 0.439568811,19.2559886 0.518363578,19.3769041 C0.60078944,19.4996351 0.748938126,19.5599113 0.966803841,19.5599113 C1.1824909,19.5599113 1.36404566,19.4996351 1.50093795,19.3769041 C1.64218756,19.2559886 1.74240579,19.0697134 1.80159264,18.8282456 L2.19629269,17.1829963 L2.62294638,17.1829963 L2.22279969,18.866009 C2.13202231,19.2349282 1.97697454,19.5065342 1.75148352,19.6906307 C1.52780806,19.8721854 1.23368934,19.9640522 0.872032255,19.9640522 C0.511101387,19.9640522 0.260192706,19.8721854 0.122211086,19.6906307 C-0.0106869999,19.5090759 -0.0375571047,19.2378331 0.0532202765,18.866009 L0.454093192,17.1829963 Z" id="Fill-178" fill="#414042"></path>
                            <path d="M2.56717276,19.8910671 L3.24001471,17.0737003 L4.52142822,18.733474 C4.55592363,18.7777733 4.59150836,18.8282456 4.62128334,18.8779916 C4.6579574,18.9342735 4.69245281,18.9934604 4.72948998,19.0595463 L5.17756713,17.1829963 L5.57589828,17.1829963 L4.90233011,20 L3.59295717,18.3133563 C3.55882487,18.2650627 3.52578191,18.2153167 3.49346516,18.1641182 C3.4644164,18.1158247 3.4379094,18.0631738 3.4110393,18.0065287 L2.96259903,19.8910671 L2.56717276,19.8910671 Z" id="Fill-180" fill="#414042"></path>
                            <polygon id="Fill-182" fill="#414042" points="5.54013199 19.8910671 6.18900871 17.1829963 6.61602552 17.1829963 5.971143 19.8910671"></polygon>
                            <polygon id="Fill-184" fill="#414042" points="6.58726724 19.8910671 7.23505463 17.1829963 8.70782687 17.1829963 8.61886503 17.5548205 7.57746692 17.5548205 7.41225208 18.2283886 8.45582886 18.2283886 8.36432526 18.6187314 7.3214747 18.6187314 7.01573648 19.8910671"></polygon>
                            <polygon id="Fill-186" fill="#414042" points="8.53328012 19.8910671 9.18215684 17.1829963 9.6113523 17.1829963 8.96066003 19.8910671"></polygon>
                            <polygon id="Fill-188" fill="#414042" points="9.5768932 19.8910671 10.2268593 17.1829963 11.7003577 17.1829963 11.611759 17.5548205 10.5692715 17.5548205 10.405146 18.2341984 11.4498121 18.2341984 11.3561299 18.6201838 10.3111007 18.6201838 10.1019496 19.496004 11.144437 19.496004 11.0507548 19.8910671"></polygon>
                            <path d="M12.0697127,19.493208 L12.432096,19.493208 C12.6289014,19.493208 12.7806812,19.4790468 12.8856198,19.4514504 C12.9909216,19.4253066 13.0882349,19.3813703 13.177923,19.3167368 C13.3013802,19.227775 13.4005091,19.1210208 13.4818457,18.9881227 C13.5595511,18.8603081 13.6205535,18.7067128 13.6634004,18.5324202 C13.7044318,18.3610325 13.7175037,18.2092528 13.6982589,18.0792595 C13.6804666,17.951445 13.6299943,17.8410597 13.5511996,17.7560921 C13.4920127,17.6892799 13.4124917,17.6424388 13.3180833,17.6159318 C13.2196806,17.5908772 13.0617279,17.5774422 12.8384156,17.5774422 L12.6830047,17.5774422 L12.5257783,17.5774422 L12.0697127,19.493208 Z M11.546835,19.8911761 L12.1931699,17.1831052 L12.7723296,17.1831052 C13.1488742,17.1831052 13.4103131,17.2008976 13.5511996,17.2404765 C13.6982589,17.2793293 13.8169957,17.3432365 13.9095887,17.434377 C14.0352246,17.5523876 14.1114776,17.7081616 14.1474254,17.8977048 C14.1808315,18.0854324 14.1673964,18.2978515 14.1114776,18.5385931 C14.0512014,18.7775192 13.9618764,18.9928431 13.8395085,19.1787552 C13.7175037,19.3617624 13.5642715,19.5168102 13.380175,19.6362732 C13.2436458,19.7277768 13.0958602,19.791321 12.9429911,19.8327154 C12.7854016,19.8704788 12.5508328,19.8911761 12.2381955,19.8911761 L12.1227267,19.8911761 L11.546835,19.8911761 Z" id="Fill-190" fill="#414042"></path>
                            <path d="M16.1993573,18.3134289 L16.310832,18.3134289 C16.5504842,18.3134289 16.7127942,18.2883743 16.8064765,18.2339079 C16.8965276,18.1794415 16.9604349,18.0879379 16.9920254,17.9528611 C17.0276102,17.809796 17.0083654,17.7052204 16.9371959,17.6503909 C16.8685682,17.587936 16.7182408,17.5607028 16.4920236,17.5607028 L16.3823645,17.5607028 L16.1993573,18.3134289 Z M16.0860672,18.675086 L15.7959427,19.8911398 L15.3903493,19.8911398 L16.0421309,17.1830689 L16.6884659,17.1830689 C16.8820032,17.1830689 17.0228897,17.1957778 17.1064049,17.2153857 C17.1931881,17.2375354 17.2647207,17.2734832 17.3206395,17.319235 C17.3874517,17.3827792 17.4328404,17.4688361 17.4517221,17.5774059 C17.4749611,17.6816183 17.4716931,17.7978134 17.4401026,17.9299852 C17.4092383,18.0541687 17.3576767,18.174721 17.2875966,18.2832908 C17.2113436,18.3914974 17.1281915,18.4779175 17.0290626,18.5385568 C16.9506309,18.5872135 16.8609429,18.6202564 16.7665344,18.6438585 C16.6695842,18.6678238 16.5243404,18.675086 16.3351603,18.675086 L16.2476509,18.675086 L16.0860672,18.675086 Z" id="Fill-192" fill="#414042"></path>
                            <path d="M17.9691895,18.8283182 L18.7052125,18.8283182 L18.584297,18.2092164 C18.5748562,18.1681851 18.5690464,18.1253381 18.5672309,18.0741397 C18.561058,18.0211257 18.5588793,17.9659331 18.5563376,17.9020258 C18.5283781,17.9586709 18.5004187,18.015316 18.4720962,18.0665144 C18.4430474,18.118076 18.4139986,18.1641909 18.3874916,18.2092164 L17.9691895,18.8283182 Z M18.8998392,19.8911398 L18.7662149,19.1921539 L17.7215488,19.1921539 L17.2502326,19.8911398 L16.800703,19.8911398 L18.7506012,17.073773 L19.3548154,19.8911398 L18.8998392,19.8911398 Z" id="Fill-194" fill="#414042"></path>
                            <path d="M19.9712301,19.8910671 L20.2660751,18.6521374 L19.7290361,17.1829963 L20.1814706,17.1829963 L20.514442,18.1013003 C20.5195255,18.1270811 20.5300557,18.1572192 20.5420383,18.1935301 C20.5529316,18.2323828 20.5598307,18.2763191 20.5689084,18.3195291 C20.5997727,18.2763191 20.6251904,18.2341984 20.6542392,18.1960719 C20.6785675,18.1597609 20.7116105,18.1227238 20.736665,18.0907701 L21.5235234,17.1829963 L21.9538082,17.1829963 L20.6920026,18.6521374 L20.394979,19.8910671 L19.9712301,19.8910671 Z" id="Fill-196" fill="#414042"></path>
                            <path d="M24.0657984,18.5524276 C24.0657984,18.5317303 24.0701557,18.4765377 24.0846801,18.3788612 C24.0930316,18.3015189 24.0999307,18.2336174 24.104288,18.1835083 C24.0766917,18.2441476 24.0501847,18.3069655 24.0127844,18.3665155 C23.9801045,18.4260655 23.9405256,18.4932407 23.8944107,18.5560587 L22.857733,19.999419 L22.5182256,18.5266468 C22.5055168,18.4681862 22.4942604,18.4086362 22.4840933,18.3519911 C22.4786467,18.2964354 22.4771942,18.239064 22.4724738,18.1835083 C22.4550445,18.2405165 22.4368891,18.2997033 22.4136501,18.361432 C22.3940421,18.424613 22.3660827,18.4903358 22.3341291,18.5560587 L21.7317304,19.8915755 L21.335941,19.8915755 L22.6362362,17.0694883 L23.0055186,18.7775555 C23.010239,18.8007945 23.0204061,18.8509036 23.0312994,18.9126322 C23.0385615,18.9729084 23.0498179,19.0553343 23.0610743,19.1457485 C23.1071892,19.0698586 23.1710965,18.9674618 23.2538855,18.8509036 C23.2756721,18.8167713 23.288744,18.7928061 23.3014528,18.7746506 L24.4724811,17.0694883 L24.4354439,19.8915755 L24.0371127,19.8915755 L24.0657984,18.5524276 Z" id="Fill-198" fill="#414042"></path>
                            <polygon id="Fill-200" fill="#414042" points="24.7753507 19.8910671 25.4253168 17.1829963 26.9009939 17.1829963 26.8091272 17.5548205 25.767729 17.5548205 25.6046929 18.2341984 26.6464541 18.2341984 26.5542243 18.6201838 25.5110106 18.6201838 25.3014964 19.496004 26.3436207 19.496004 26.2503016 19.8910671"></polygon>
                            <path d="M26.7426781,19.8910671 L27.4155201,17.0737003 L28.6991122,18.733474 C28.7336076,18.7777733 28.7659244,18.8282456 28.8036878,18.8779916 C28.8370939,18.9342735 28.8694106,18.9934604 28.9057216,19.0595463 L29.3556143,17.1829963 L29.7535823,17.1829963 L29.0800141,20 L27.7717305,18.3133563 C27.7328778,18.2650627 27.7034659,18.2153167 27.6747803,18.1641182 C27.6421004,18.1158247 27.6152303,18.0631738 27.590902,18.0065287 L27.136652,19.8910671 L26.7426781,19.8910671 Z" id="Fill-202" fill="#414042"></path>
                            <polygon id="Fill-204" fill="#414042" points="31.1230136 17.5552925 30.5638249 19.8915392 30.1328139 19.8915392 30.6923657 17.5552925 29.9919274 17.5552925 30.0805261 17.1831052 31.9098719 17.1831052 31.8219994 17.5552925"></polygon>
                            <path d="M31.5698198,19.3485089 L31.9489062,19.1840203 C31.9536266,19.3067513 31.9892113,19.4004336 32.0636488,19.4617991 C32.1351814,19.524617 32.2364889,19.5580231 32.3708394,19.5580231 C32.5001064,19.5580231 32.6094024,19.5209859 32.7012691,19.4487271 C32.7934989,19.375379 32.8537751,19.2755239 32.8846394,19.1546084 C32.9216766,18.9966558 32.8276312,18.8539537 32.6010509,18.7330382 C32.5680079,18.712341 32.541864,18.7003584 32.5269765,18.6920069 C32.2724368,18.5456737 32.1094006,18.4142281 32.0393204,18.2962175 C31.9706927,18.1763913 31.955079,18.0333262 31.9982891,17.8633909 C32.0494875,17.6426203 32.1674981,17.462518 32.3468742,17.3259888 C32.5237085,17.187281 32.7321334,17.1197426 32.9703333,17.1197426 C33.1660493,17.1197426 33.3171029,17.1600478 33.433661,17.2377532 C33.5411414,17.3150956 33.6050487,17.4236653 33.622478,17.5663673 L33.2462965,17.7482852 C33.2107118,17.6607758 33.1671386,17.5961423 33.1173926,17.5609207 C33.0636524,17.5162582 32.9942985,17.5013707 32.9111464,17.5013707 C32.7982194,17.5013707 32.6990905,17.5307826 32.618117,17.5961423 C32.531697,17.6538767 32.4790461,17.7402968 32.4547177,17.8394257 C32.4144126,18.0031881 32.5302445,18.1549679 32.7924096,18.2976699 L32.8407032,18.3205458 C33.0720039,18.4440031 33.2219682,18.566371 33.2920483,18.685834 C33.3624916,18.8005766 33.3744742,18.9479991 33.3298117,19.1251965 C33.2702617,19.3815519 33.1428103,19.5852563 32.9507254,19.7373992 C32.757188,19.8862741 32.5237085,19.9639795 32.2564599,19.9639795 C32.0327845,19.9639795 31.8592181,19.9098762 31.7412075,19.8042113 C31.6228338,19.6989096 31.5665518,19.5474929 31.5698198,19.3485089" id="Fill-206" fill="#414042"></path>
                            <polygon id="Fill-208" fill="#414042" points="34.7388945 19.8910671 35.3895868 17.1829963 35.8184191 17.1829963 35.1677269 19.8910671"></polygon>
                            <path d="M35.7853035,19.8910671 L36.4617766,17.0737003 L37.7417377,18.733474 C37.77587,18.7777733 37.8089129,18.8282456 37.8405035,18.8779916 C37.8789931,18.9342735 37.9145778,18.9934604 37.9497994,19.0595463 L38.3975135,17.1829963 L38.7947553,17.1829963 L38.1211871,20 L36.8132666,18.3133563 C36.7773188,18.2650627 36.7453651,18.2153167 36.7159533,18.1641182 C36.6858152,18.1158247 36.6567664,18.0631738 36.6291701,18.0065287 L36.1800036,19.8910671 L35.7853035,19.8910671 Z" id="Fill-210" fill="#414042"></path>
                            <polygon id="Fill-212" fill="#414042" points="40.1638961 17.5552925 39.6072492 19.8915392 39.1747857 19.8915392 39.7336113 17.5552925 39.0342623 17.5552925 39.1221348 17.1831052 40.9511175 17.1831052 40.8639712 17.5552925"></polygon>
                            <polygon id="Fill-214" fill="#414042" points="40.6326705 19.8910671 41.2811841 17.1829963 42.7532301 17.1829963 42.6620896 17.5548205 41.6181497 17.5548205 41.4551135 18.2341984 42.5012321 18.2341984 42.4086391 18.6201838 41.3650624 18.6201838 41.1537326 19.496004 42.1983987 19.496004 42.103264 19.8910671"></polygon>
                            <path d="M43.3971322,18.3368494 L43.4748376,18.3368494 C43.7039597,18.3368494 43.86046,18.3085269 43.9494218,18.2529711 C44.0351156,18.2017727 44.096118,18.1062749 44.132429,17.9661146 C44.1676506,17.8165135 44.1505845,17.7108486 44.0855879,17.6502093 C44.0202281,17.5906594 43.8786154,17.5605213 43.6607497,17.5605213 L43.5852229,17.5605213 L43.3971322,18.3368494 Z M43.290378,18.6796248 L42.9998904,19.8909582 L42.597565,19.8909582 L43.2460786,17.1828874 L43.8444831,17.1828874 C44.0202281,17.1828874 44.1534893,17.1955962 44.2446298,17.2170197 C44.3354072,17.2402587 44.407666,17.2794745 44.4654004,17.334304 C44.5282184,17.4000269 44.573244,17.4820896 44.593215,17.5870283 C44.6135491,17.6894252 44.6081025,17.8030784 44.5786906,17.9301668 C44.5282184,18.1462169 44.4334468,18.3136104 44.3041798,18.4370677 C44.1734604,18.560888 44.0042513,18.6331468 43.8005469,18.6578383 L44.4145651,19.8909582 L43.9265459,19.8909582 L43.3375822,18.6796248 L43.290378,18.6796248 Z" id="Fill-216" fill="#414042"></path>
                            <polygon id="Fill-218" fill="#414042" points="44.6665994 19.8910671 45.3129344 17.1829963 46.7886115 17.1829963 46.6985603 17.5548205 45.656436 17.5548205 45.4926736 18.2283886 46.5369766 18.2283886 46.4447468 18.6187314 45.397902 18.6187314 45.0947055 19.8910671"></polygon>
                            <path d="M47.2856721,18.8283182 L48.0209689,18.8283182 L47.898601,18.2092164 C47.8898864,18.1681851 47.888797,18.1253381 47.8844397,18.0741397 C47.8800824,18.0211257 47.8768144,17.9659331 47.8735464,17.9020258 C47.8441345,17.9586709 47.8139965,18.015316 47.7885788,18.0665144 C47.75953,18.118076 47.7319337,18.1641909 47.7054267,18.2092164 L47.2856721,18.8283182 Z M48.2163218,19.8911398 L48.0866917,19.1921539 L47.039847,19.1921539 L46.5641735,19.8911398 L46.1142808,19.8911398 L48.0688993,17.073773 L48.6702087,19.8911398 L48.2163218,19.8911398 Z" id="Fill-220" fill="#414042"></path>
                            <path d="M51.4649538,17.8396799 C51.3669142,17.7336519 51.2594338,17.6563096 51.137429,17.6025694 C51.0136087,17.5491923 50.8770795,17.5215959 50.7278415,17.5215959 C50.4395325,17.5215959 50.1839034,17.6160044 49.9569599,17.8084525 C49.7300165,17.9965432 49.5815047,18.2405528 49.5081566,18.5455648 C49.4395289,18.8364155 49.4674883,19.076794 49.5971184,19.2696052 C49.7300165,19.4573328 49.9279112,19.5542831 50.1995171,19.5542831 C50.3527493,19.5542831 50.5092495,19.5248712 50.6642973,19.4685892 C50.818982,19.4130335 50.9780239,19.3258872 51.1316193,19.2111446 L51.0136087,19.7089677 C50.8770795,19.7942985 50.7369192,19.8582057 50.590223,19.8970584 C50.4435267,19.9395423 50.2946518,19.9642337 50.132705,19.9642337 C49.9319054,19.9642337 49.7532555,19.9301014 49.5971184,19.8629262 C49.4449755,19.7913936 49.3193396,19.6940802 49.2173058,19.5597297 C49.1221711,19.431552 49.0600794,19.279046 49.0357511,19.1025748 C49.002345,18.9290085 49.0136014,18.7401915 49.0615319,18.5415706 C49.1120041,18.3433128 49.187894,18.1574007 49.2993686,17.979477 C49.4072121,17.8084525 49.5499142,17.6534047 49.7096824,17.5215959 C49.8745341,17.3901503 50.0491898,17.2884796 50.232197,17.2180364 C50.4202877,17.1501349 50.6109202,17.1185444 50.8069993,17.1185444 C50.9634995,17.1185444 51.1069278,17.1388785 51.2358317,17.1871721 C51.3647356,17.2329239 51.4852879,17.3026409 51.5938577,17.3966863 L51.4649538,17.8396799 Z" id="Fill-222" fill="#414042"></path>
                            <polygon id="Fill-224" fill="#414042" points="51.5060941 19.8910671 52.1564233 17.1829963 53.6288324 17.1829963 53.5384181 17.5548205 52.4922996 17.5548205 52.3307158 18.2341984 53.3753819 18.2341984 53.2838783 18.6201838 52.2388491 18.6201838 52.0271563 19.496004 53.0732748 19.496004 52.977777 19.8910671"></polygon>
                            <polygon id="Fill-226" fill="#6D6E71" points="43.676545 14.819589 40.7262801 14.819589 44.8319595 0 47.7829506 0"></polygon>
                            <path d="M42.1453847,0.470735188 C41.9391385,0.18642043 41.625775,0.0491650296 41.1954902,0.0491650296 L24.9735722,0.0491650296 L24.1678322,2.9493208 L27.1217282,2.9493208 L27.1217282,2.94605282 L38.9282343,2.94605282 L38.0694803,6.05027614 L26.2640635,6.05027614 L26.2640635,6.04228774 L23.3130723,6.04228774 L20.8649879,14.8836416 L23.8145266,14.8836416 L25.4612283,8.94861637 L38.7328814,8.94861637 C39.1439214,8.94861637 39.5378952,8.81063475 39.9039096,8.52486756 C40.2702872,8.24236835 40.5088501,7.89269387 40.62795,7.47657036 L42.268842,1.54190829 C42.3890312,1.10726618 42.3461843,0.753960617 42.1453847,0.470735188" id="Fill-228" fill="#6D6E71"></path>
                            <path d="M19.1418517,13.8958384 C18.9802679,14.4840758 18.4439552,14.8911216 17.8361098,14.8911216 L2.61310611,14.8911216 C2.19952437,14.8911216 1.89015505,14.7502351 1.68971859,14.4637417 C1.48674037,14.1801532 1.44389345,13.8333836 1.55863606,13.4161707 L5.27542515,0.043573143 L8.22605315,0.043573143 L4.91195252,11.9876978 L16.7213636,11.9876978 L20.0398215,0.043573143 L22.9926282,0.043573143 L19.1418517,13.8958384 Z" id="Fill-230" fill="#6D6E71"></path>
                            <polygon id="Fill-232" fill="#008C44" points="52.8766147 0.0310095534 56.6111962 7.45805177 48.756774 14.8861833"></polygon>
                            <polygon id="Fill-234" fill="#F47920" points="50.2603743 0.0310095534 53.9898722 7.45805177 46.1332714 14.8861833"></polygon>
                        </g>
                    </g>
                </g>
            </g>
        </g>
    </g>
</svg>