<?xml version="1.0" encoding="UTF-8"?>
<svg width="551.09795px" height="400px" viewBox="0 0 551.09795 400" version="1.1" xmlns="http://www.w3.org/2000/svg" xmlns:xlink="http://www.w3.org/1999/xlink">
    <title>vectors / sign-in</title>
    <g id="vectors-/-sign-in" stroke="none" stroke-width="1" fill="none" fill-rule="evenodd">
        <circle id="Oval" fill="#FFFFFF" fill-rule="nonzero" cx="236.184886" cy="187.042393" r="187.042393"></circle>
        <ellipse id="Oval" fill="#FFFFFF" fill-rule="nonzero" cx="74.2151925" cy="388.125569" rx="74.2151925" ry="11.8744308"></ellipse>
        <ellipse id="Oval" fill="#FFFFFF" fill-rule="nonzero" cx="436.264983" cy="369.556171" rx="114.832967" ry="18.3732747"></ellipse>
        <path d="M410.751174,192.951828 C410.751174,192.951828 411.728824,196.210663 406.188805,199.143612 C400.648786,202.076561 399.019367,213.156604 405.53704,216.415438 C412.054714,219.674272 414.010008,223.910761 410.751159,226.84371 C407.49231,229.77666 401.626421,237.597893 409.447624,239.553167 C417.268827,241.508442 418.246477,245.419071 415.965293,247.048486 C413.684108,248.6779 421.179411,244.115536 421.179411,244.115536 C421.179411,244.115536 422.482946,251.936714 429.326499,249.98144 C436.170053,248.026165 455.397178,210.875419 445.620671,205.661285 C435.844163,200.447152 410.751174,192.951828 410.751174,192.951828 Z" id="Path" fill="#2F2E41" fill-rule="nonzero"></path>
        <path d="M422.562798,224.419175 C422.562798,224.419175 425.943189,236.250556 420.027501,237.095657 C416.35641,237.667846 412.877575,239.11736 409.886316,241.321149 L420.872597,255.687806 L441.154967,255.687806 L453.831453,243.011325 C453.831453,243.011325 436.929475,230.334843 440.309871,222.728954 C443.690268,215.123065 422.562798,224.419175 422.562798,224.419175 Z" id="Path" fill="#FFB9B9" fill-rule="nonzero"></path>
        <path d="M422.562798,224.419175 C422.562798,224.419175 425.943189,236.250556 420.027501,237.095657 C416.35641,237.667846 412.877575,239.11736 409.886316,241.321149 L420.872597,255.687806 L441.154967,255.687806 L453.831453,243.011325 C453.831453,243.011325 436.929475,230.334843 440.309871,222.728954 C443.690268,215.123065 422.562798,224.419175 422.562798,224.419175 Z" id="Path" fill="#000000" fill-rule="nonzero" opacity="0.1"></path>
        <polygon id="Path" fill="#FFB9B9" fill-rule="nonzero" points="427.633455 371.466595 447.070815 378.227198 460.592021 379.072148 459.747071 367.240842 431.858707 358.992927"></polygon>
        <path d="M452.563803,368.931068 C452.563803,368.931068 452.563803,380.762449 454.253999,380.762449 C455.944194,380.762449 478.761866,378.227153 485.522664,380.762449 C492.283463,383.297746 502.424643,374.001661 497.35405,368.931068 C492.283458,363.860476 484.012531,356.254587 478.851902,357.944783 C473.691273,359.634979 452.563803,363.860476 452.563803,363.860476 L452.563803,368.931068 Z" id="Path" fill="#575A89" fill-rule="nonzero"></path>
        <path d="M390.449041,357.944783 C390.449041,357.944783 380.307856,378.227153 387.068645,379.917354 C393.829433,381.607555 401.435327,379.072253 402.280422,378.227153 C403.125518,377.382053 414.956909,374.001661 416.647079,375.691857 C418.337275,377.382053 418.337275,368.931068 418.337275,368.931068 L390.449041,357.944783 Z" id="Path" fill="#575A89" fill-rule="nonzero"></path>
        <path d="M398.900031,330.056524 C398.900031,330.056524 382.843152,352.02909 394.674533,357.944783 C406.505914,363.860476 463.127518,363.860476 467.35303,357.944783 C471.578542,352.02909 473.268723,333.43692 467.35303,331.746719 C461.437337,330.056524 398.900031,330.056524 398.900031,330.056524 Z" id="Path" fill="#2F2E41" fill-rule="nonzero"></path>
        <path d="M398.900031,330.056524 C398.900031,330.056524 382.843152,352.02909 394.674533,357.944783 C406.505914,363.860476 463.127518,363.860476 467.35303,357.944783 C471.578542,352.02909 473.268723,333.43692 467.35303,331.746719 C461.437337,330.056524 398.900031,330.056524 398.900031,330.056524 Z" id="Path" fill="#000000" fill-rule="nonzero" opacity="0.2"></path>
        <circle id="Oval" fill="#FFB9B9" fill-rule="nonzero" cx="429.323586" cy="210.897593" r="19.4372748"></circle>
        <path d="M398.900031,241.321149 L415.802004,237.940752 C415.802004,237.940752 420.027501,251.462334 433.549078,248.927038 C447.070655,246.391741 450.451057,237.940752 450.451057,237.940752 C450.451057,237.940752 460.592242,242.166249 461.437342,242.166249 C462.282443,242.166249 473.268723,246.391741 473.268723,248.927038 C473.268723,251.462334 460.592242,276.815297 460.592242,276.815297 L462.282438,322.45062 L399.745106,320.760419 L403.970603,275.970186 L398.900031,241.321149 Z" id="Path" fill="#3BB54A" fill-rule="nonzero"></path>
        <path d="M389.603941,263.29372 C389.603941,263.29372 384.533348,308.083953 387.913745,311.464349 C391.294142,314.844746 404.815719,324.140831 404.815719,324.140831 L404.815719,313.999646 L398.05493,301.323164 L404.815719,271.744704 L389.603941,263.29372 Z" id="Path" fill="#FFB9B9" fill-rule="nonzero"></path>
        <path d="M477.07167,262.026069 C477.07167,262.026069 474.113824,308.083953 474.113824,309.774153 C474.113824,311.464354 466.507935,317.380042 463.972638,317.380042 C461.437342,317.380042 459.747141,313.154545 459.747141,313.154545 L465.662834,306.393757 L461.437342,271.744704 L477.07167,262.026069 Z" id="Path" fill="#FFB9B9" fill-rule="nonzero"></path>
        <path d="M469.043231,326.676127 C469.043231,326.676127 507.072675,305.548656 507.917776,326.676127 C508.762876,347.803598 488.480501,356.254587 488.480501,356.254587 C488.480501,356.254587 436.084374,371.966144 433.971628,366.223101 C431.858882,360.480059 427.63339,351.183994 431.013782,350.338894 C434.394173,349.493793 438.619671,347.803598 440.309871,349.493793 C442.000072,351.183989 463.127533,336.817312 463.127533,336.817312 L469.043231,326.676127 Z" id="Path" fill="#2F2E41" fill-rule="nonzero"></path>
        <path d="M486.790305,324.140831 C486.790305,324.140831 479.184416,327.521227 476.64912,330.056524 C474.113824,332.59182 463.127538,336.817312 463.127538,336.817312" id="Path" stroke="#000000" stroke-width="2" opacity="0.2"></path>
        <path d="M403.970623,243.011345 L398.900031,241.321149 C398.900031,241.321149 380.307856,260.758424 386.223549,265.829016 C392.139242,270.899609 395.519634,272.589805 397.20983,274.28002 C398.900026,275.970236 407.351015,276.815317 407.351015,276.815317 L403.970623,243.011345 Z" id="Path" fill="#3BB54A" fill-rule="nonzero"></path>
        <path d="M465.662834,247.236842 L473.268723,248.927038 C473.268723,248.927038 479.184416,261.603519 480.874612,263.293695 C482.564808,264.983871 478.339316,264.13879 475.804019,267.519187 C473.268723,270.899584 470.733427,276.815272 465.662834,276.815272 C460.592242,276.815272 453.831453,268.364267 453.831453,268.364267 L465.662834,247.236842 Z" id="Path" fill="#3BB54A" fill-rule="nonzero"></path>
        <path d="M400.590226,334.282016 C400.590226,334.282016 368.47647,311.464354 357.49019,328.366328 C346.503909,345.268301 404.815719,368.085968 413.266708,371.466365 C421.717697,374.846761 429.323586,378.227153 429.323586,378.227153 C429.323586,378.227153 436.929475,359.634979 436.929475,356.254587 C436.929475,352.874195 431.013782,352.87419 429.323586,352.87419 C427.63339,352.87419 420.027501,351.183994 418.3373,348.648698 C416.6471,346.113402 400.590226,334.282016 400.590226,334.282016 Z" id="Path" fill="#2F2E41" fill-rule="nonzero"></path>
        <path d="M382.843152,328.366328 C382.843152,328.366328 391.294157,335.127116 398.900031,336.817332 C406.505904,338.507548 409.041216,342.733025 409.041216,342.733025" id="Path" stroke="#000000" stroke-width="2" opacity="0.2"></path>
        <path d="M394.760638,296.590948 L395.435766,332.372785 C395.482181,334.832897 397.504268,336.795014 399.964663,336.767656 L466.552624,336.019198 C468.906741,335.99275 470.838635,334.148466 470.97423,331.798109 L472.995406,296.764451 C473.066409,295.533705 472.627042,294.3281 471.780803,293.431632 C470.934563,292.535163 469.756266,292.027084 468.523474,292.027084 L399.239214,292.027084 C398.036563,292.027084 396.884429,292.51069 396.042085,293.369075 C395.199741,294.22746 394.737952,295.388511 394.760638,296.590948 Z" id="Path" fill="#575A89" fill-rule="nonzero"></path>
        <path d="M430.362047,186.48062 C430.362047,186.48062 431.445087,190.090757 425.307857,193.339883 C419.170627,196.58901 417.365553,208.863475 424.585828,212.473613 C431.806104,216.083751 433.972185,220.776924 430.362047,224.02605 C426.751909,227.275176 420.253662,235.939504 428.917995,238.105585 C437.582328,240.271666 438.665363,244.603832 436.138266,246.408901 C433.611168,248.21397 441.914514,243.15978 441.914514,243.15978 C441.914514,243.15978 443.358566,251.824108 450.939854,249.658027 C458.521141,247.491946 466.08541,208.117608 457.63442,197.976422 C449.776476,188.546916 430.362047,186.48062 430.362047,186.48062 Z" id="Path" fill="#2F2E41" fill-rule="nonzero"></path>
        <path d="M428.05594,182.764645 C428.05759,177.475609 443.881177,181.276028 450.665498,188.660701 C455.363471,193.774479 462.499201,201.468017 456.519678,206.891176 C450.540155,212.314336 466.769087,219.423555 471.121557,221.57899 C475.474028,223.734425 484.067686,230.325852 476.308241,234.747779 C468.548797,239.169705 468.67389,243.633448 471.594072,244.690318 C474.514255,245.747187 465.155734,243.118896 465.155734,243.118896 C465.155734,243.118896 466.101225,251.851718 458.216674,251.810046 C450.332122,251.768075 427.711983,208.436903 433.115752,196.39271 C438.140301,185.193783 428.05594,182.764645 428.05594,182.764645 Z" id="Path" fill="#2F2E41" fill-rule="nonzero"></path>
        <path d="M431.483373,181.605574 C410.323098,180.331379 408.199415,196.259509 408.199415,196.259509 C408.345699,205.477141 422.983693,200.985798 427.049286,202.359908 C431.954204,198.831477 441.408748,192.155279 448.170364,187.390819 C443.261373,183.93423 437.478485,181.929349 431.483373,181.605574 Z" id="Path" fill="#2F2E41" fill-rule="nonzero"></path>
        <path d="M425.454858,283.245587 C425.454858,283.245587 406.473796,194.287937 287.668832,129.756373" id="Path" stroke="#3F3D56" stroke-width="2"></path>
        <polygon id="Path" fill="#3F3D56" fill-rule="nonzero" points="292.563811 127.816112 292.8015 128.79144 287.996066 129.95682 289.509956 134.664971 288.554184 134.97136 286.711341 129.236732"></polygon>
        <path d="M34.3362204,374.140594 C34.3362204,385.407543 27.6385801,389.341545 19.3759019,389.341545 C19.1844935,389.341545 18.9933878,389.339417 18.8025845,389.335162 C18.4197494,389.326958 18.040565,389.30873 17.6659437,389.283206 C10.2090369,388.755456 4.41558833,384.619102 4.41558833,374.140594 C4.41558833,363.296576 18.2729989,349.613265 19.3139172,348.600594 L19.3157424,348.598773 C19.3558588,348.55958 19.3759169,348.540434 19.3759169,348.540434 C19.3759169,348.540434 34.3362204,362.873644 34.3362204,374.140594 Z" id="Path" fill="#3BB54A" fill-rule="nonzero"></path>
        <path d="M18.8308314,387.617907 L24.302512,379.972343 L18.8171568,388.457396 L18.8025845,389.335162 C18.4197494,389.326958 18.040565,389.30873 17.6659437,389.283206 L18.2556887,378.010791 L18.2511255,377.923282 L18.2611546,377.906879 L18.3167558,376.842257 L12.8177109,368.336213 L18.334061,376.043787 L18.346838,376.269838 L18.7925454,367.752862 L14.0846996,358.963341 L18.8499719,366.257993 L19.3139172,348.600574 L19.3157424,348.540399 L19.3157424,348.598738 L19.2382828,362.522747 L23.9251778,357.002741 L19.2191273,363.722225 L19.0951679,371.347761 L23.4712416,364.029396 L19.07694,372.469814 L19.0076692,376.709156 L25.3607604,366.523237 L18.9839704,378.188511 L18.8308314,387.617907 Z" id="Path" fill="#3F3D56" fill-rule="nonzero"></path>
        <path d="M105.693085,371.221625 L108.893264,368.844126 C108.893264,368.844126 111.011581,380.676731 108.647807,382.449576 C106.284034,384.222422 97.4198712,387.177129 97.4198712,390.722795 C97.4198712,394.268461 77.3277727,398.996009 76.7368292,393.677512 C76.1458857,388.359016 78.5096596,385.404299 78.5096596,385.404299 C78.5096596,385.404299 87.9647654,375.949193 89.1466524,374.176362 C90.3285394,372.403532 93.2832618,368.857866 93.2832618,368.857866 L105.693085,371.221625 Z" id="Path" fill="#2F2E41" fill-rule="nonzero"></path>
        <path d="M58.4175661,224.076567 C58.4175661,224.076567 58.5062182,224.5966 58.6597985,225.548008 C58.80171,226.393059 58.9966753,227.586775 59.2330707,229.058221 C61.7150775,244.204138 68.9541427,288.790851 68.4636104,290.262297 C67.8726669,292.035128 63.7360625,298.535511 68.4636104,300.308347 C68.9186498,300.479703 69.4091069,301.035194 69.9350569,301.90978 C70.9501798,303.793504 71.7870458,305.76797 72.43474,307.807426 C75.2535533,315.98607 78.2674273,329.075494 80.010682,338.140554 C80.7730224,342.123548 81.2929851,345.326455 81.4466356,347.004716 C81.500053,347.392579 81.5060124,347.785505 81.4643821,348.174809 C80.8734386,350.538588 85.010043,358.811802 86.7828785,361.175576 C88.5557139,363.53935 91.5104314,365.903129 90.9194829,368.266908 C90.3285344,370.630686 105.693085,377.131065 107.465915,372.99446 C109.238746,368.857856 109.238751,366.494072 109.829694,365.312185 C110.420638,364.130298 111.011581,355.857084 108.056864,354.675192 C105.102147,353.4933 106.874972,332.810263 103.920255,328.673659 C102.933423,327.296746 101.426489,322.634192 99.8486386,317.026136 C99.2281946,314.827842 98.6017582,312.487691 97.9871511,310.141674 C95.4933852,300.527006 93.2832618,290.853246 93.2832618,290.853246 L93.8741953,221.712788 L61.3722735,217.576183 L60.5390926,219.414012 L58.8785076,223.06013 L58.4175661,224.076567 Z" id="Path" fill="#2F2E41" fill-rule="nonzero"></path>
        <path d="M56.6447457,337.537801 C56.6447457,337.537801 51.9171928,332.810248 49.5534189,337.537801 C47.1896449,342.265354 44.825866,360.584627 40.6892566,364.721227 C36.5526471,368.857826 31.2341558,389.540878 37.1435956,390.722765 C43.0530355,391.904652 49.5534189,388.949929 50.1443623,385.404269 C50.7353058,381.858608 63.1450939,363.539355 63.1450939,361.766524 C63.1450939,359.993694 54.8718801,353.493305 54.8718801,353.493305 L56.6447457,337.537801 Z" id="Path" fill="#2F2E41" fill-rule="nonzero"></path>
        <path d="M129.330844,191.574645 C129.330844,191.574645 121.648569,260.715093 119.875744,267.215471 C118.102918,273.71585 108.647807,298.535501 105.693085,302.67211 C102.738363,306.80872 83.828156,340.492529 81.4643821,342.265359 C79.1006081,344.03819 74.3730502,348.765742 74.3730502,348.765742 C74.3730502,348.765742 65.5088929,357.629905 64.327006,359.402735 C63.145119,361.175566 53.0990697,355.857074 52.5081263,352.311408 C51.9171828,348.765742 53.0990697,342.856303 53.6900132,340.492529 C54.2809567,338.128755 52.5081263,334.583089 54.2809567,332.810253 C56.0537872,331.037418 64.9179495,322.173261 64.9179495,318.036656 C64.9179495,313.900052 80.2825001,289.671344 86.191935,284.352847 C92.1013698,279.034351 90.9194829,270.170189 90.9194829,270.170189 L90.9194829,234.122616 L58.4175661,224.076567 C58.4175661,224.076567 60.1903966,195.711254 64.327006,195.711254 C68.4636154,195.711254 122.830461,186.256149 129.330844,191.574645 Z" id="Path" fill="#2F2E41" fill-rule="nonzero"></path>
        <circle id="Oval" fill="#FEB8B9" fill-rule="nonzero" cx="81.4643821" cy="73.3858428" r="19.5011551"></circle>
        <path d="M87.9647654,88.7503834 C87.9647654,88.7503834 90.3285394,97.6145457 93.2832618,99.9783247 C96.2379843,102.342104 85.6009865,112.388148 85.6009865,112.388148 L65.5088929,113.570035 L61.963227,102.342099 C61.963227,102.342099 68.4636104,89.3413319 66.6907799,81.0681131 C64.9179495,72.7948943 87.9647654,88.7503834 87.9647654,88.7503834 Z" id="Path" fill="#FEB8B9" fill-rule="nonzero"></path>
        <path d="M96.2379792,98.7964327 C96.2379792,98.7964327 90.9194829,99.3873762 89.7375959,101.160212 C88.5557089,102.933047 80.2824951,108.251538 73.7821068,107.069651 C67.2817184,105.887765 63.145114,104.114929 61.963227,104.705873 C60.7813401,105.296816 58.4175661,117.706644 58.4175661,117.706644 L64.9179495,136.616851 L63.7360625,188.619923 L61.963227,202.802581 C61.963227,202.802581 58.4175661,198.075028 72.6002198,201.029751 C86.7828735,203.984473 105.102142,198.665972 111.011596,198.075028 C116.921051,197.484085 126.967086,195.711254 127.558029,192.165589 C128.148973,188.619923 125.785199,175.619156 125.785199,175.619156 L116.330093,136.025907 L110.420653,114.751922 L96.2379792,98.7964327 Z" id="Path" fill="#3E6799" fill-rule="nonzero"></path>
        <path d="M90.6483015,96.129264 C90.6483015,96.129264 95.6470358,93.4779363 97.4198712,95.8417152 C99.1927067,98.2054942 121.648574,101.751155 121.648574,103.523991 C121.648574,105.296826 126.376127,153.163288 125.19424,157.299918 C124.012353,161.436547 127.558014,166.164075 127.558014,166.164075 L131.694623,183.8924 C131.694623,183.8924 142.92256,217.576209 138.195007,218.758096 C133.467454,219.939982 129.330844,218.758096 127.558014,218.758096 C125.785184,218.758096 126.376127,196.302223 121.648574,190.392783 C116.921021,184.483343 110.420638,169.709741 109.238751,166.755024 C108.056864,163.800306 93.2832618,123.025166 93.8742003,118.297613 C94.4651388,113.57006 90.6483015,96.129264 90.6483015,96.129264 Z" id="Path" fill="#D0CDE1" fill-rule="nonzero"></path>
        <path d="M66.0998364,98.7964327 C66.0998364,98.7964327 61.3722835,98.7964327 60.7813401,99.9783247 C60.1903966,101.160217 54.2809567,108.842482 51.9171778,110.615322 C49.5533988,112.388163 41.280195,120.070418 41.280195,121.843249 C41.280195,123.616079 58.4175711,136.616851 58.4175711,136.616851 C58.4175711,136.616851 65.508898,171.482547 61.963232,183.301426 C58.4175661,195.120306 53.0990747,223.485623 55.4628487,225.258454 C57.8266226,227.031284 63.145124,227.622228 63.145124,225.258454 C63.145124,222.89468 66.6907899,197.484085 69.6455124,192.165589 C72.6002348,186.847092 81.4643921,153.163283 77.9187262,143.708178 C74.3730603,134.253072 66.0998364,98.7964327 66.0998364,98.7964327 Z" id="Path" fill="#D0CDE1" fill-rule="nonzero"></path>
        <path d="M144.104447,157.299893 C144.104447,157.299893 144.69539,175.619156 138.195007,185.074262 C131.694623,194.529367 127.558014,205.166355 127.558014,205.166355 C127.558014,205.166355 116.921021,202.211638 115.148191,198.665972 C113.37536,195.120306 102.147419,198.075028 102.147419,196.893141 C102.147419,195.711254 115.739134,189.801815 116.921021,188.619923 C118.102908,187.438031 122.239518,187.438036 124.603297,185.074262 C126.967076,182.710488 127.558019,177.391986 127.558019,177.391986 L129.921793,162.027436 L144.104447,157.299893 Z" id="Path" fill="#FEB8B9" fill-rule="nonzero"></path>
        <path d="M94.8957423,61.3618383 C96.3959924,61.2255631 97.9432638,61.0756133 99.2691684,60.36056 C102.240073,58.7583693 103.027882,54.1957496 100.766269,51.6900793 C100.14269,51.0525308 99.4452249,50.4917108 98.6886802,50.0195254 L94.1967405,46.96207 C92.21005,45.6098291 90.1763982,44.2354239 87.8592645,43.5979555 C85.7634676,43.0213887 83.5499493,43.0806355 81.3804788,43.2154865 C77.1689572,43.4772455 72.931365,44.0179534 68.9701692,45.4720296 C65.0089734,46.9261058 61.3138692,49.3587444 58.9147828,52.8300296 C55.1114899,58.3330862 55.0592133,65.7549364 57.1539522,72.1079273 C59.248691,78.4609183 63.2277536,83.9930893 67.1484821,89.413105 L69.1828408,79.4869233 C69.3640412,78.6028148 69.5983657,77.6338351 70.3336778,77.1105829 C72.1612469,75.810077 74.3967941,78.4802744 76.6397878,78.4629642 C78.0810067,78.451842 79.2910052,77.2664348 79.8371839,75.9326725 C80.3833626,74.5989101 80.4193219,73.1218774 80.5456883,71.6861694 C80.8133343,68.645247 81.8762212,64.4140534 84.7559914,62.7369655 C87.4394773,61.1742042 91.8794112,61.6358026 94.8957423,61.3618383 Z" id="Path" fill="#2F2E41" fill-rule="nonzero"></path>
        <path d="M93.8017853,224.55351 C93.8017853,224.55351 91.8059031,282.28455 90.6240111,284.057386 C89.4421191,285.830221 90.6240111,224.372039 90.6240111,224.372039 L93.8017853,224.55351 Z" id="Path" fill="#000000" fill-rule="nonzero" opacity="0.1"></path>
        <path d="M116.921021,103.523986 L121.648574,103.523986 C121.648574,103.523986 141.740673,130.707411 139.376894,132.480241 C137.013115,134.253072 139.376894,138.98063 139.376894,138.98063 L144.104447,147.844787 C144.104447,147.844787 150.013887,153.163283 148.241056,154.34517 C146.468226,155.527057 144.104447,160.25461 144.104447,160.25461 C144.104447,160.25461 132.285567,158.48178 128.739896,165.573107 L121.075467,155.897236 L116.921021,103.523986 Z" id="Path" fill="#D0CDE1" fill-rule="nonzero"></path>
        <polygon id="Rectangle" fill="#2F2E41" fill-rule="nonzero" transform="translate(116.722587, 130.732255) rotate(-22.437870) translate(-116.722587, -130.732255) " points="107.947142 114.378925 125.498032 114.378925 125.498032 147.085586 107.947142 147.085586"></polygon>
        <ellipse id="Oval" fill="#3BB54A" fill-rule="nonzero" transform="translate(115.459824, 127.017416) rotate(-22.437850) translate(-115.459824, -127.017416) " cx="115.459824" cy="127.017416" rx="3.51017802" ry="3.22459997"></ellipse>
        <path d="M105.102142,150.799509 C105.102142,150.799509 62.5541705,186.256149 55.4628437,175.028212 C48.3715168,163.800276 63.145119,154.34517 63.145119,154.34517 C63.145119,154.34517 76.1458907,154.936114 90.9194879,145.481013 L105.69309,138.98063 C105.69309,138.98063 119.180222,119.725297 123.776228,127.057558 C128.372235,134.389818 115.93093,147.15101 105.102142,150.799509 Z" id="Path" fill="#FEB8B9" fill-rule="nonzero"></path>
        <path d="M47.7805734,119.479475 L41.280195,121.843249 L41.280195,139.571573 L38.9164161,143.117234 C38.9164161,143.117234 39.5073596,150.208566 41.280195,151.981396 C43.0530305,153.754227 46.5986864,153.163283 45.4167994,157.299893 C44.706479,159.996792 44.5060623,162.802628 44.8258559,165.573107 C44.8258559,165.573107 55.4628487,179.164822 56.0537922,177.391986 C56.6447357,175.619151 64.9179545,153.754227 66.0998414,153.754227 C67.2817284,153.754227 54.2809617,119.479475 54.2809617,119.479475 L47.7805734,119.479475 Z" id="Path" fill="#D0CDE1" fill-rule="nonzero"></path>
        <path d="M125.489712,209.007493 C125.489712,209.007493 131.599929,203.098053 128.544825,202.802581 C125.489722,202.50711 114.852719,196.59767 113.079884,199.552387 C111.307048,202.507105 125.489712,209.007493 125.489712,209.007493 Z" id="Path" fill="#2F2E41" fill-rule="nonzero"></path>
        <ellipse id="Oval" fill="#57B894" fill-rule="nonzero" cx="241.70083" cy="91.7662531" rx="8.52471806" ry="4.51308603"></ellipse>
        <path d="M274.29534,106.809873 C255.072936,99.5499793 235.850533,99.5499793 216.62813,106.809873 L216.62813,83.2415351 C235.431807,77.5674125 255.491662,77.5674125 274.29534,83.2415351 L274.29534,106.809873 Z" id="Path" stroke="#3F3D56" stroke-width="2"></path>
        <path d="M266.272076,101.935811 C252.398515,96.6960575 238.524954,96.6960575 224.651394,101.935811 L224.651394,84.9256182 C238.222744,80.8303838 252.700726,80.8303838 266.272076,84.9256182 L266.272076,101.935811 Z" id="Path" stroke="#3F3D56" stroke-width="2"></path>
        <ellipse id="Oval" stroke="#3F3D56" stroke-width="2" cx="244.709554" cy="89.7604371" rx="8.52471806" ry="4.51308603"></ellipse>
        <ellipse id="Oval" fill="#57B894" fill-rule="nonzero" transform="translate(247.066487, 120.121166) rotate(-11.535460) translate(-247.066487, -120.121166) " cx="247.066487" cy="120.121166" rx="8.52471806" ry="4.51308603"></ellipse>
        <path d="M282.010962,128.342855 C261.725048,125.073585 242.890915,128.917573 225.508564,139.874818 L220.795503,116.782535 C238.084689,107.46277 257.739358,103.451314 277.297901,105.250572 L282.010962,128.342855 Z" id="Path" stroke="#3F3D56" stroke-width="2"></path>
        <path d="M273.175092,125.17169 C258.533952,122.812128 244.940622,125.586484 232.395102,133.494758 L228.993484,116.828152 C241.471765,110.101714 255.657308,107.206489 269.773473,108.505084 L273.175092,125.17169 Z" id="Path" stroke="#3F3D56" stroke-width="2"></path>
        <ellipse id="Oval" stroke="#3F3D56" stroke-width="2" transform="translate(249.613329, 117.554201) rotate(-11.535460) translate(-249.613329, -117.554201) " cx="249.613329" cy="117.554201" rx="8.52471806" ry="4.51308603"></ellipse>
        <ellipse id="Oval" fill="#57B894" fill-rule="nonzero" transform="translate(245.298621, 148.172190) rotate(-86.019400) translate(-245.298621, -148.172190) " cx="245.298621" cy="148.17219" rx="4.51308603" ry="8.52471806"></ellipse>
        <path d="M276.770211,165.442207 C258.09816,156.865428 238.922128,155.531032 219.242114,161.43902 L220.878198,137.927536 C240.030405,133.572434 260.041868,134.964964 278.406295,141.930724 L276.770211,165.442207 Z" id="Path" stroke="#3F3D56" stroke-width="2"></path>
        <path d="M269.104654,160.022939 C255.628305,153.832753 241.78822,152.869667 227.584398,157.133681 L228.765227,140.164523 C242.588124,137.021273 257.031179,138.026317 270.285503,143.05378 L269.104654,160.022939 Z" id="Path" stroke="#3F3D56" stroke-width="2"></path>
        <ellipse id="Oval" stroke="#3F3D56" stroke-width="2" transform="translate(248.439325, 146.380078) rotate(-86.019400) translate(-248.439325, -146.380078) " cx="248.439325" cy="146.380078" rx="4.51308603" ry="8.52471806"></ellipse>
        <path d="M208.064203,107.35706 C208.064203,107.35706 171.209279,102.315075 144.89009,117.739093" id="Path" stroke="#3F3D56" stroke-width="2"></path>
        <polygon id="Path" fill="#3F3D56" fill-rule="nonzero" points="145.77669 112.555864 146.733966 112.858742 145.237627 117.571909 150.048577 118.719737 149.814398 119.696068 143.955911 118.29651"></polygon>
    </g>
</svg>