<?xml version="1.0" encoding="UTF-8"?>
<svg width="93px" height="40px" viewBox="0 0 93 40" version="1.1" xmlns="http://www.w3.org/2000/svg" xmlns:xlink="http://www.w3.org/1999/xlink">
    <title>visa</title>
    <g id="🔵-Payment_Method" stroke="none" stroke-width="1" fill="none" fill-rule="evenodd">
        <g id="1" transform="translate(-1502.000000, -806.000000)">
            <g id="Group-8" transform="translate(792.000000, 190.000000)">
                <g id="visa" transform="translate(710.000000, 616.000000)">
                    <polygon id="Fill-30" fill="#00589F" points="41.5263866 39.7196807 44.4638815 21.3431964 49.2617899 21.3431964 46.324295 39.7196807"></polygon>
                    <path d="M63.5086403,21.7792486 C62.5294754,21.3899163 61.0607279,21.000584 59.2003144,21.000584 C54.598239,21.000584 51.2690781,23.4923107 51.1711616,27.0741678 C51.1711616,29.7216274 53.6190741,31.2010901 55.381571,32.0576212 C57.2419845,32.9920187 57.8294835,33.5370839 57.8294835,34.3157485 C57.8294835,35.5616118 56.360736,36.1845435 54.989905,36.1845435 C53.1294916,36.1845435 52.0524101,35.8730777 50.5836626,35.1722795 L49.8982472,34.9386802 L49.2128317,38.987736 C50.3878297,39.5328012 52.4440761,40 54.598239,40 C59.4940639,40 62.8232248,37.5082733 62.8232248,33.6928168 C62.8232248,31.5904224 61.5503104,30.0330932 58.8086484,28.7093634 C57.144068,27.8528324 56.164903,27.3077672 56.164903,26.4512361 C56.164903,25.6725715 57.0461515,24.8160405 58.9065649,24.8160405 C60.4732289,24.8160405 61.5503104,25.2053728 62.4315589,25.5168386 L62.8232248,25.750438 L63.5086403,21.7792486" id="Fill-31" fill="#00589F"></path>
                    <path d="M69.8340461,33.1944715 C70.2257121,32.1822075 71.6944595,28.0552852 71.6944595,28.0552852 C71.6944595,28.1331516 72.0861255,26.9651548 72.379875,26.2643566 L72.6736245,27.8995523 C72.6736245,27.8995523 73.554873,32.260074 73.750706,33.1944715 L69.8340461,33.1944715 Z M75.7090359,21.3587697 L71.988209,21.3587697 C70.9111275,21.3587697 70.0298791,21.6702355 69.5402966,22.8382324 L62.4903088,39.735254 L67.4840501,39.735254 C67.4840501,39.735254 68.2673821,37.4771267 68.4632151,36.9320615 C69.0507141,36.9320615 73.8486225,37.009928 74.534038,37.009928 C74.7298709,37.6328596 75.1215369,39.735254 75.1215369,39.735254 L79.5277793,39.735254 L75.7090359,21.3587697 L75.7090359,21.3587697 Z" id="Fill-32" fill="#00589F"></path>
                    <path d="M37.5411852,21.3431964 L32.9391098,33.8796963 L32.3516108,31.3101032 C31.2745293,28.1954448 28.7287004,24.9250535 25.7912055,23.6013237 L30.0995314,39.7196807 L35.0932727,39.7196807 L42.5349265,21.3431964 L37.5411852,21.3431964" id="Fill-33" fill="#00589F"></path>
                    <path d="M28.572034,21.3354098 L20.9345472,21.3354098 L20.8366307,21.6468756 C26.809537,23.2042048 30.7261969,26.9417948 32.3907774,31.380183 L30.7261969,22.892739 C30.4324474,21.7247421 29.6491155,21.4132762 28.572034,21.3354098" id="Fill-34" fill="#F9A51A"></path>
                    <polyline id="Fill-35" fill="#00589F" points="6.56040534 16.889235 3.52499391 16.889235 0 1.16021024 3.32916092 0.615145026 5.77707336 12.9180456 11.8478962 0.770877944 15.0791406 0.770877944"></polyline>
                    <path d="M18.0558022,7.26494063 C16.9787207,7.26494063 15.9016392,8.12147168 15.4120567,9.99026669 L19.9162156,9.99026669 C19.9162156,8.27720459 19.4266331,7.26494063 18.0558022,7.26494063 M22.2662115,11.7033288 L15.1183072,11.7033288 C14.9224742,13.9614561 15.9016392,14.8958536 17.6641362,14.8958536 C19.0349671,14.8958536 20.3078816,14.3507884 21.6787126,13.4942573 L21.6787126,15.6745182 C20.3078816,16.5310493 18.8391341,17.0761145 16.9787207,17.0761145 C13.8453928,17.0761145 11.7891463,15.2851859 12.3766453,11.23613 C12.9641443,7.57640646 15.5099732,5.31827915 18.4474681,5.31827915 C21.7766291,5.31827915 22.951627,7.8878723 22.4620445,11.0803971 C22.364128,11.3139965 22.364128,11.5475959 22.2662115,11.7033288" id="Fill-36" fill="#00589F"></path>
                    <path d="M27.0151617,10.3640257 L26.0359967,16.8269418 L23.1964183,16.8269418 L24.9589152,5.53630524 L27.3089112,5.53630524 L27.3089112,7.79443255 C28.2880761,6.5485692 29.5609906,5.45843878 31.3234876,5.30270586 L31.3234876,8.10589838 C29.5609906,8.2616313 27.9943267,9.11816235 27.0151617,10.3640257" id="Fill-37" fill="#00589F"></path>
                    <path d="M34.750565,3.68308351 C33.8693165,3.68308351 33.183901,3.06015184 33.2818175,2.12575433 C33.4776505,1.11349036 34.358899,0.490558692 35.2401475,0.490558692 C36.121396,0.490558692 36.8068114,1.11349036 36.6109784,2.12575433 C36.5130619,3.06015184 35.6318135,3.68308351 34.750565,3.68308351 M31.3234876,16.8425151 L33.0859845,5.55187853 L35.8276465,5.55187853 L34.0651495,16.8425151" id="Fill-38" fill="#00589F"></path>
                    <path d="M43.5728414,2.49172669 C42.5936764,2.49172669 42.0061775,2.88105898 41.908261,3.89332295 L41.6145115,5.52851859 L43.7686744,5.52851859 L43.7686744,7.86451236 L41.320762,7.86451236 L39.949931,16.8191551 L37.1103526,16.8191551 L38.4811835,7.86451236 L36.9145196,7.86451236 L37.2082691,5.52851859 L38.8728495,5.52851859 L39.166599,3.65972357 C39.558265,1.16799689 41.2228455,0.233599377 43.5728414,0.233599377 C44.0624239,0.233599377 44.4540899,0.233599377 44.7478394,0.311465836 L44.7478394,2.56959315 C44.4540899,2.56959315 44.0624239,2.49172669 43.5728414,2.49172669" id="Fill-39" fill="#00589F"></path>
                    <path d="M47.0586687,3.68308351 C46.0795038,3.68308351 45.4920048,3.06015184 45.5899213,2.12575433 C45.7857543,1.11349036 46.5690862,0.490558692 47.5482512,0.490558692 C48.4294997,0.490558692 49.1149152,1.11349036 48.9190822,2.12575433 C48.8211657,3.06015184 47.9399172,3.68308351 47.0586687,3.68308351 M43.6315913,16.8425151 L45.2961718,5.55187853 L48.1357502,5.55187853 L46.3732533,16.8425151" id="Fill-40" fill="#00589F"></path>
                    <path d="M54.7157388,7.26494063 C53.6386574,7.26494063 52.5615759,8.12147168 52.0719934,9.99026669 L56.5761523,9.99026669 C56.5761523,8.27720459 56.0865698,7.26494063 54.7157388,7.26494063 M58.9261482,11.7033288 L51.7782439,11.7033288 C51.5824109,13.9614561 52.5615759,14.8958536 54.3240729,14.8958536 C55.6949038,14.8958536 56.9678183,14.3507884 58.3386493,13.4942573 L58.3386493,15.6745182 C57.0657348,16.5310493 55.4990708,17.0761145 53.6386574,17.0761145 C50.5053294,17.0761145 48.449083,15.2851859 49.036582,11.23613 C49.624081,7.57640646 52.1699099,5.31827915 55.1074048,5.31827915 C58.4365658,5.31827915 59.6115637,7.8878723 59.1219812,11.0803971 C59.0240647,11.3139965 59.0240647,11.5475959 58.9261482,11.7033288" id="Fill-41" fill="#00589F"></path>
                    <path d="M68.1890489,8.1759782 C67.5036334,7.86451236 67.0140509,7.70877944 66.034886,7.70877944 C64.664055,7.70877944 63.3911405,8.87677633 62.9994745,11.368503 C62.6078085,13.5487639 63.3911405,14.5610278 64.664055,14.5610278 C65.64322,14.5610278 66.5244685,13.9380962 67.4057169,13.0036987 L68.1890489,8.1759782 Z M67.2098839,16.8191551 L67.3078004,15.261826 C66.3286355,16.1962235 65.055721,17.0527545 63.489057,17.0527545 C61.1390611,17.0527545 59.5723971,15.3396924 60.1598961,11.5242359 C60.7473951,7.31944715 63.3911405,5.45065213 66.034886,5.45065213 C67.1119674,5.45065213 67.8952994,5.60638505 68.5807149,5.83998443 L69.3640469,0.467198754 L72.2036253,0 L69.6577964,16.8191551 L67.2098839,16.8191551 Z" id="Fill-42" fill="#00589F"></path>
                    <path d="M79.7823622,9.99026669 C79.0969467,9.99026669 78.4115313,10.4574654 77.7261158,11.0803971 L77.1386168,14.9737201 C77.5302828,15.129453 77.8240323,15.2073194 78.4115313,15.2073194 C79.7823622,15.2073194 80.7615272,14.3507884 81.0552767,12.4041269 C81.2511097,10.7689313 80.7615272,9.99026669 79.7823622,9.99026669 M78.2156983,16.9203815 C76.9427838,16.9203815 75.8657023,16.6867822 74.7886208,16.3753163 L76.6490343,4.38388164 L78.8031972,4.07241581 L78.0198653,9.2116021 C78.7052807,8.66653689 79.5865292,8.12147168 80.6636107,8.12147168 C82.4261077,8.12147168 83.6011056,9.44520148 83.2094396,12.3262605 C82.7198572,15.4409188 80.7615272,16.9203815 78.2156983,16.9203815" id="Fill-43" fill="#00589F"></path>
                    <path d="M88.1738061,17.2785673 C87.0967246,19.3809617 86.0196431,20.0038933 84.3550627,20.0038933 C83.9633967,20.0038933 83.7675637,20.0038933 83.5717307,19.9260269 L83.5717307,18.2129648 C83.8654802,18.2908312 84.1592297,18.2908312 84.5508957,18.2908312 C85.1383946,18.2908312 85.7258936,18.0572318 86.1175596,17.4343002 L86.4113091,16.889235 L84.5508957,8.47965739 L86.8029751,8.16819155 L87.8800566,14.2417754 L90.719635,8.32392447 L92.7758815,8.32392447" id="Fill-44" fill="#00589F"></path>
                </g>
            </g>
        </g>
    </g>
</svg>