<?xml version="1.0" encoding="UTF-8"?>
<svg width="27px" height="20px" viewBox="0 0 27 20" version="1.1" xmlns="http://www.w3.org/2000/svg" xmlns:xlink="http://www.w3.org/1999/xlink">
    <title>i-adduser</title>
    <g id="Dashboard-Inprogress" stroke="none" stroke-width="1" fill="none" fill-rule="evenodd">
        <g id="1" transform="translate(-36.000000, -850.000000)" fill="#3E6799">
            <g id="Group-11" transform="translate(25.000000, 835.000000)">
                <g id="i-adduser" transform="translate(11.833333, 15.833333)">
                    <g id="i-user" fill-rule="nonzero" stroke="#FFFFFF" stroke-width="0.5">
                        <path d="M9.16666667,0 C6.92868163,0 5.09259259,1.83608904 5.09259259,4.07407407 C5.09259259,6.31205911 6.92868163,8.14814815 9.16666667,8.14814815 C11.4046513,8.14814815 13.2407407,6.31205911 13.2407407,4.07407407 C13.2407407,1.83608904 11.4046513,0 9.16666667,0 Z M9.16666667,2.03703704 C10.303755,2.03703704 11.2037037,2.93698564 11.2037037,4.07407407 C11.2037037,5.21116251 10.303755,6.11111111 9.16666667,6.11111111 C8.02957833,6.11111111 7.12962963,5.21116251 7.12962963,4.07407407 C7.12962963,2.93698564 8.02957833,2.03703704 9.16666667,2.03703704 Z M9.16666667,11.2037037 C7.38939972,11.2037037 5.28322239,11.6210753 3.51309322,12.3196975 C2.62802854,12.6690086 1.82793121,13.0839398 1.18760848,13.6167177 C0.54728575,14.1494945 0,14.869743 0,15.787037 L0,18.3333333 L18.3333333,18.3333333 L18.3333333,17.3148148 L18.3333333,15.787037 C18.3333333,14.869743 17.7860477,14.1494945 17.1457244,13.6167177 C16.5054022,13.0839398 15.705305,12.6690086 14.8202399,12.3196975 C13.0501107,11.6210753 10.9439336,11.2037037 9.16666667,11.2037037 Z M9.16666667,13.2407407 C10.6068997,13.2407407 12.5746856,13.6216656 14.0742545,14.2135054 C14.82404,14.5094257 15.4580158,14.8621866 15.8427378,15.1822917 C16.2274567,15.5023968 16.2962963,15.7204422 16.2962963,15.787037 L16.2962963,16.2962963 L2.03703704,16.2962963 L2.03703704,15.787037 C2.03703704,15.7204422 2.10587534,15.5023968 2.49059606,15.1822917 C2.87531679,14.8621866 3.50929354,14.5094257 4.25907839,14.2135054 C5.75864819,13.6216656 7.72643361,13.2407407 9.16666667,13.2407407 Z" id="Shape"></path>
                    </g>
                    <polygon id="Path" points="20.6666667 2.16666667 20.6666667 6.66666667 16.1666667 6.66666667 16.1666667 7.66666667 20.6666667 7.66666667 20.6666667 12.1666667 21.6666667 12.1666667 21.6666667 7.66666667 26.1666667 7.66666667 26.1666667 6.66666667 21.6666667 6.66666667 21.6666667 2.16666667"></polygon>
                </g>
            </g>
        </g>
    </g>
</svg>