<?xml version="1.0" encoding="UTF-8"?>
<svg width="20px" height="20px" viewBox="0 0 20 20" version="1.1" xmlns="http://www.w3.org/2000/svg" xmlns:xlink="http://www.w3.org/1999/xlink">
    <title>i-help</title>
    <g id="Dashboard-Inprogress" stroke="none" stroke-width="1" fill="none" fill-rule="evenodd">
        <g id="1" transform="translate(-40.000000, -1012.000000)" fill="#3E6799" fill-rule="nonzero">
            <g id="Group-11" transform="translate(25.000000, 835.000000)">
                <g id="Group" transform="translate(0.000000, 162.000000)">
                    <g id="i-help" transform="translate(15.000000, 15.000000)">
                        <path d="M10,0 C4.48230217,0 0,4.48230217 0,10 C0,15.5176978 4.48230217,20 10,20 C15.5176978,20 20,15.5176978 20,10 C20,4.48230217 15.5176978,0 10,0 Z M10,0.869565217 C15.0477496,0.869565217 19.1304348,4.95225043 19.1304348,10 C19.1304348,15.0477496 15.0477496,19.1304348 10,19.1304348 C4.95225043,19.1304348 0.869565217,15.0477496 0.869565217,10 C0.869565217,4.95225043 4.95225043,0.869565217 10,0.869565217 Z M10.1256791,4.56861391 C8.50394,4.56861391 7.4286413,5.55127739 7.19429348,7.04823391 C7.17907609,7.14214652 7.22521043,7.20411696 7.31912348,7.21976913 L8.30163043,7.39215348 C8.39554348,7.40780565 8.45751348,7.36080174 8.47316565,7.26732348 C8.66012217,6.31601913 9.22121609,5.78549609 10.0942596,5.78549609 C10.98339,5.78549609 11.6066574,6.34720783 11.6066574,7.23590348 C11.6066578,7.76633826 11.4198778,8.12487087 10.8746604,8.87313174 L9.82931391,10.3074048 C9.50192261,10.7600135 9.36226217,11.0876087 9.36226217,11.7119565 L9.36226217,12.3505435 C9.36226217,12.4440217 9.42418478,12.5068343 9.51766304,12.5051304 L10.5468748,12.5051304 C10.6403535,12.5051304 10.7022757,12.4431726 10.7022757,12.3496943 L10.7022757,11.8512226 C10.7022757,11.3212226 10.796447,11.1027648 11.1081861,10.6818952 L12.1526835,9.24677304 C12.6831183,8.51372957 12.9475204,7.96846478 12.9475204,7.21976913 C12.9475204,5.67585609 11.8091574,4.56861391 10.1256791,4.56861391 Z M9.44038739,13.6922557 C9.34647435,13.6922557 9.28413739,13.755027 9.28413739,13.8485052 L9.28413739,15.1893683 C9.28413739,15.2828465 9.34603957,15.3447691 9.44038739,15.3447691 L10.6258491,15.3447691 C10.7188926,15.3447691 10.78125,15.2832813 10.78125,15.1893683 L10.78125,13.8485052 C10.78125,13.7554622 10.7193274,13.6922557 10.6258491,13.6922557 L9.44038739,13.6922557 Z" id="Shape"></path>
                    </g>
                </g>
            </g>
        </g>
    </g>
</svg>