<?xml version="1.0" encoding="UTF-8"?>
<svg width="24px" height="24px" viewBox="0 0 24 24" version="1.1" xmlns="http://www.w3.org/2000/svg" xmlns:xlink="http://www.w3.org/1999/xlink">
    <title>i-notification</title>
    <g id="Dashboard-Inprogress" stroke="none" stroke-width="1" fill="none" fill-rule="evenodd">
        <g id="1" transform="translate(-38.000000, -930.000000)" fill="#3E6799" fill-rule="nonzero">
            <g id="Group-11" transform="translate(25.000000, 835.000000)">
                <g id="Group" transform="translate(0.000000, 82.000000)">
                    <g id="i-notification" transform="translate(13.000000, 13.000000)">
                        <path d="M0.491477921,7.63613964 C0.543364914,7.64911139 0.597413865,7.65559726 0.649300858,7.65559726 C0.939003234,7.65559726 1.20492407,7.45885908 1.27843065,7.16483279 C1.87945498,4.76073545 3.3106712,2.63120679 5.30615846,1.17404707 C5.59586084,0.962175187 5.65855762,0.557889035 5.44668574,0.268186658 C5.23481385,-0.0215157186 4.8305277,-0.0842125016 4.54082532,0.127659386 C2.3010368,1.76426162 0.694701976,4.15106329 0.0201710698,6.85134887 C-0.0684692096,7.19726216 0.143402678,7.54966132 0.491477921,7.63613964 Z M17.8130857,1.17404707 C19.808573,2.63120679 21.2376272,4.7585735 21.8408135,7.16483279 C21.9143201,7.45885908 22.178079,7.65559726 22.4699433,7.65559726 C22.5218303,7.65559726 22.5758792,7.64911139 22.6277662,7.63613964 C22.9758415,7.54966132 23.1855514,7.19726216 23.0990731,6.84918691 C22.4245422,4.15106329 20.8182074,1.76209966 18.5784188,0.125497428 C18.2887165,-0.0863744596 17.8844303,-0.0236776766 17.6725584,0.2660247 C17.4606865,0.557889035 17.5233833,0.962175187 17.8130857,1.17404707 Z M1.87296911,17.2655007 C1.66109722,18.1108263 1.84702561,18.9907432 2.38535316,19.6760839 C2.92151875,20.3635866 3.73009106,20.7570629 4.60136014,20.7570629 L7.72755146,20.7570629 C8.03671146,22.5947273 9.63656041,24 11.5607031,24 C13.4848457,24 15.0825327,22.5947273 15.3938547,20.7570629 L18.520046,20.7570629 C19.3913151,20.7570629 20.1998874,20.3635866 20.736053,19.6760839 C21.2722185,18.9885813 21.4581469,18.1108263 21.248437,17.2655007 L18.9027125,7.89989852 C18.0595489,4.52292007 15.0392935,2.16422385 11.5585411,2.16422385 C8.07778866,2.16422385 5.05753329,4.52292007 4.21436966,7.89989852 L1.87296911,17.2655007 Z M11.5585411,22.7028252 C10.3521685,22.7028252 9.3382102,21.8747953 9.04850782,20.7570629 L14.0664124,20.7570629 C13.778872,21.8747953 12.7649137,22.7028252 11.5585411,22.7028252 Z M11.5585411,3.46139867 C14.4425931,3.46139867 16.9461405,5.41580874 17.644453,8.21338243 L19.9858535,17.5789846 C20.1004373,18.0351578 19.9988253,18.5064646 19.7112848,18.8783214 C19.4215825,19.2480162 18.9870289,19.4598881 18.517884,19.4598881 L4.59919819,19.4598881 C4.13005329,19.4598881 3.69549973,19.2480162 3.40579735,18.8783214 C3.11609497,18.5086266 3.01664491,18.0351578 3.13122868,17.5789846 L5.47262923,8.21338243 C6.17094168,5.41580874 8.67448908,3.46139867 11.5585411,3.46139867 Z" id="Shape"></path>
                    </g>
                </g>
            </g>
        </g>
    </g>
</svg>