<?xml version="1.0" encoding="UTF-8"?>
<svg width="14px" height="14px" viewBox="0 0 14 14" version="1.1" xmlns="http://www.w3.org/2000/svg" xmlns:xlink="http://www.w3.org/1999/xlink">
    <title>i-save_all</title>
    <g id="Merchant-Management" stroke="none" stroke-width="1" fill="none" fill-rule="evenodd">
        <g id="New-Merchant" transform="translate(-1742.000000, -105.000000)" fill="#3E6799" fill-rule="nonzero">
            <g id="Group-2" transform="translate(101.000000, 90.000000)">
                <g id="Group-16" transform="translate(1619.000000, 2.000000)">
                    <g id="i-save_all" transform="translate(22.000000, 13.000000)">
                        <path d="M0.954545455,0 C0.428272727,0 0,0.428272727 0,0.954545455 L0,11.1363636 C0,11.6626364 0.428272727,12.0909091 0.954545455,12.0909091 L1.27272727,12.0909091 L1.27272727,11.4545455 L0.954545455,11.4545455 C0.779227273,11.4545455 0.636363636,11.3116818 0.636363636,11.1363636 L0.636363636,0.954545455 C0.636363636,0.779227273 0.779227273,0.636363636 0.954545455,0.636363636 L9.09552573,0.636363636 L9.73188936,1.27272727 L10.631747,1.27272727 L9.45223714,0.0932173455 C9.39273714,0.0333991318 9.31159091,0 9.22727273,0 L0.954545455,0 Z M4.76775568,1.90473671 C4.75234149,1.90507483 4.73697196,1.90652871 4.72176855,1.90909091 L2.86363636,1.90909091 C2.34023682,1.90909091 1.90909091,2.34023682 1.90909091,2.86363636 L1.90909091,13.0454545 C1.90909091,13.5688541 2.34023682,14 2.86363636,14 L13.0454545,14 C13.5688541,14 14,13.5688541 14,13.0454545 L14,4.77272727 C14,4.6883458 13.9664532,4.60742565 13.9067826,4.54776286 L11.3892934,2.03027345 C11.3182215,1.93713011 11.2017158,1.89057558 11.0860263,1.90909091 L4.82182177,1.90909091 C4.8039564,1.90610474 4.78586868,1.90473671 4.76775568,1.90473671 Z M2.86363636,2.54545455 L4.45454545,2.54545455 L4.45454545,6.04545455 C4.45454545,6.56885409 4.88569136,7 5.40909091,7 L10.5,7 C11.0233995,7 11.4545455,6.56885409 11.4545455,6.04545455 L11.4545455,2.99538336 L13.3636364,4.90447427 L13.3636364,13.0454545 C13.3636364,13.2252368 13.2252368,13.3636364 13.0454545,13.3636364 L11.4545455,13.3636364 L11.4545455,9.54545455 C11.4545455,9.02190068 11.0235539,8.59090909 10.5,8.59090909 L5.40909091,8.59090909 C4.88553705,8.59090909 4.45454545,9.02190068 4.45454545,9.54545455 L4.45454545,13.3636364 L2.86363636,13.3636364 C2.68385409,13.3636364 2.54545455,13.2252368 2.54545455,13.0454545 L2.54545455,2.86363636 C2.54545455,2.68385409 2.68385409,2.54545455 2.86363636,2.54545455 Z M5.09090909,2.54545455 L10.8181818,2.54545455 L10.8181818,6.04545455 C10.8181818,6.22523682 10.6797823,6.36363636 10.5,6.36363636 L5.40909091,6.36363636 C5.22930864,6.36363636 5.09090909,6.22523682 5.09090909,6.04545455 L5.09090909,2.54545455 Z M8.90909091,3.18181818 L8.90909091,5.72727273 L9.86363636,5.72727273 L9.86363636,3.18181818 L8.90909091,3.18181818 Z M5.40909091,9.22727273 L10.5,9.22727273 C10.6764461,9.22727273 10.8181818,9.36900841 10.8181818,9.54545455 L10.8181818,13.3636364 L5.09090909,13.3636364 L5.09090909,9.54545455 C5.09090909,9.36900841 5.23264477,9.22727273 5.40909091,9.22727273 Z M3.18181818,12.0909091 L3.18181818,12.7272727 L3.81818182,12.7272727 L3.81818182,12.0909091 L3.18181818,12.0909091 Z M12.0909091,12.0909091 L12.0909091,12.7272727 L12.7272727,12.7272727 L12.7272727,12.0909091 L12.0909091,12.0909091 Z" id="Shape"></path>
                    </g>
                </g>
            </g>
        </g>
    </g>
</svg>