<?xml version="1.0" encoding="UTF-8"?>
<svg width="19px" height="16px" viewBox="0 0 19 16" version="1.1" xmlns="http://www.w3.org/2000/svg" xmlns:xlink="http://www.w3.org/1999/xlink">
    <title>icons / office</title>
    <g id="Symbols" stroke="none" stroke-width="1" fill="none" fill-rule="evenodd">
        <g id="menu-/-collapse-service" transform="translate(-17.000000, -499.000000)" fill="#3E6799" fill-rule="nonzero">
            <g id="icons-/-office" transform="translate(17.000000, 499.000000)">
                <path d="M1.81759348,0 C1.61683596,0 1.45409485,0.162761179 1.45407478,0.363518695 L1.45407478,5.08926173 C1.45409485,5.29001925 1.61683596,5.45276036 1.81759348,5.45278043 L4.72574304,5.45278043 L4.72574304,6.54333651 L0.363518695,6.54333651 C0.162761179,6.54335659 0,6.70609769 0,6.90685521 L0,8.36092999 C0,8.56168751 0.162761179,8.72442861 0.363518695,8.72444868 L0.72703739,8.72444868 L0.72703739,15.6313039 C0.72518334,15.7624018 0.794061257,15.8843425 0.907296442,15.9504325 C1.02053163,16.0165225 1.16058055,16.0165225 1.27381573,15.9504325 C1.38705091,15.8843425 1.45592883,15.7624018 1.45407478,15.6313039 L1.45407478,11.2690796 L10.5420422,11.2690796 L10.5420422,15.6313039 C10.5420622,15.8320614 10.7048033,15.9948025 10.9055609,15.9948226 L17.0853787,15.9948226 C17.2861362,15.9948025 17.4488773,15.8320614 17.4488974,15.6313039 L17.4488974,8.72444868 L17.8124161,8.72444868 C18.0131736,8.72442861 18.1759348,8.56168751 18.1759348,8.36092999 L18.1759348,6.90685521 C18.1759348,6.70609769 18.0131736,6.54335659 17.8124161,6.54333651 L17.4488974,6.54333651 L17.4488974,2.90814956 C17.4488773,2.70739204 17.2861362,2.54465094 17.0853787,2.54463087 L15.9948226,2.54463087 L15.9948226,2.18111217 C15.9948025,1.98035465 15.8320614,1.81761355 15.6313039,1.81759348 L14.1772291,1.81759348 C13.9764716,1.81761355 13.8137305,1.98035465 13.8137104,2.18111217 L13.8137104,3.27166826 L12.7231543,3.27166826 C12.5223968,3.27168833 12.3596557,3.43442944 12.3596356,3.63518695 L12.3596356,6.54333651 L6.90685521,6.54333651 L6.90685521,5.45278043 L9.81500477,5.45278043 C10.0157623,5.45276036 10.1785034,5.29001925 10.1785235,5.08926173 L10.1785235,0.363518695 C10.1785034,0.162761179 10.0157623,0 9.81500477,0 L1.81759348,0 Z M2.18111217,0.72703739 L9.45148608,0.72703739 L9.45148608,4.72574304 L2.18111217,4.72574304 L2.18111217,0.72703739 Z M14.5407478,2.54463087 L15.2677852,2.54463087 L15.2677852,2.90814956 L15.2677852,6.54333651 L14.5407478,6.54333651 L14.5407478,3.63518695 L14.5407478,2.54463087 Z M15.9948226,3.27166826 L16.72186,3.27166826 L16.72186,6.54333651 L15.9948226,6.54333651 L15.9948226,3.27166826 Z M13.086673,3.99870565 L13.8137104,3.99870565 L13.8137104,6.54333651 L13.086673,6.54333651 L13.086673,3.99870565 Z M5.45278043,5.45278043 L6.17981782,5.45278043 L6.17981782,6.54333651 L5.45278043,6.54333651 L5.45278043,5.45278043 Z M0.72703739,7.2703739 L17.4488974,7.2703739 L17.4488974,7.99741129 L0.72703739,7.99741129 L0.72703739,7.2703739 Z M1.45407478,8.72444868 L10.5420422,8.72444868 L10.5420422,10.5420422 L1.45407478,10.5420422 L1.45407478,8.72444868 Z M11.2690796,8.72444868 L16.72186,8.72444868 L16.72186,11.6325982 L11.2690796,11.6325982 L11.2690796,8.72444868 Z M13.2684324,9.81500477 C13.1373345,9.81315072 13.0153938,9.88202864 12.9493038,9.99526382 C12.8832138,10.108499 12.8832138,10.2485479 12.9493038,10.3617831 C13.0153938,10.4750183 13.1373345,10.5438962 13.2684324,10.5420422 L14.7225072,10.5420422 C14.8536051,10.5438962 14.9755457,10.4750183 15.0416358,10.3617831 C15.1077258,10.2485479 15.1077258,10.108499 15.0416358,9.99526382 C14.9755457,9.88202864 14.8536051,9.81315072 14.7225072,9.81500477 L13.2684324,9.81500477 Z M11.2690796,12.3596356 L16.72186,12.3596356 L16.72186,15.2677852 L11.2690796,15.2677852 L11.2690796,12.3596356 Z M13.2684324,13.4501917 C13.1373345,13.4483377 13.0153938,13.5172156 12.9493038,13.6304508 C12.8832138,13.743686 12.8832138,13.8837349 12.9493038,13.9969701 C13.0153938,14.1102052 13.1373345,14.1790832 13.2684324,14.1772291 L14.7225072,14.1772291 C14.8536051,14.1790832 14.9755457,14.1102052 15.0416358,13.9969701 C15.1077258,13.8837349 15.1077258,13.743686 15.0416358,13.6304508 C14.9755457,13.5172156 14.8536051,13.4483377 14.7225072,13.4501917 L13.2684324,13.4501917 Z" id="Shape"></path>
            </g>
        </g>
    </g>
</svg>