<?xml version="1.0" encoding="UTF-8"?>
<svg width="15px" height="16px" viewBox="0 0 15 16" version="1.1" xmlns="http://www.w3.org/2000/svg" xmlns:xlink="http://www.w3.org/1999/xlink">
    <title>icons / report</title>
    <g id="Symbols" stroke="none" stroke-width="1" fill="none" fill-rule="evenodd">
        <g id="menu-/-collapse-service" transform="translate(-19.000000, -579.000000)" fill="#3E6799" fill-rule="nonzero">
            <g id="icons-/-report" transform="translate(19.000000, 579.000000)">
                <path d="M3.55271368e-15,0 L3.55271368e-15,15.3333333 L7.66666667,15.3333333 L7.66666667,14.6666667 L0.666666667,14.6666667 L0.666666667,0.666666667 L7.33333333,0.666666667 L7.33333333,4.66666667 L11.3333333,4.66666667 L11.3333333,9.33333333 L12,9.33333333 L12,4.19531267 L7.80468733,0 L3.55271368e-15,0 Z M8,1.13802083 L10.8619793,4 L8,4 L8,1.13802083 Z M9.66666667,7 C9.29833333,7 9,7.29833333 9,7.66666667 C9,7.752 9.01754167,7.833203 9.046875,7.908203 L7.09830733,10.343099 C7.065974,10.338099 7.03366667,10.3333333 7,10.3333333 C6.954,10.3333333 6.90921867,10.3380053 6.86588533,10.3470053 L4.96354167,8.20768233 C4.98520833,8.14168233 5,8.073 5,8 C5,7.63166667 4.70166667,7.33333333 4.33333333,7.33333333 C3.965,7.33333333 3.66666667,7.63166667 3.66666667,8 C3.66666667,8.05933333 3.677073,8.115573 3.69140633,8.170573 L2.50390633,9.358073 C2.44923967,9.34340633 2.39266667,9.33333333 2.33333333,9.33333333 C1.965,9.33333333 1.66666667,9.63166667 1.66666667,10 C1.66666667,10.3683333 1.965,10.6666667 2.33333333,10.6666667 C2.70166667,10.6666667 3,10.3683333 3,10 C3,9.94066667 2.98959367,9.884427 2.97526033,9.829427 L4.16276033,8.641927 C4.217427,8.65659367 4.274,8.66666667 4.33333333,8.66666667 C4.37933333,8.66666667 4.42411467,8.66199467 4.467448,8.65299467 L6.36914067,10.7929687 C6.34780733,10.8586353 6.33333333,10.927 6.33333333,11 C6.33333333,11.3683333 6.63166667,11.6666667 7,11.6666667 C7.36833333,11.6666667 7.66666667,11.3683333 7.66666667,11 C7.66666667,10.9146667 7.649125,10.8334637 7.61979167,10.7584637 L7.66666667,10.7005207 L7.66666667,10.6334637 C7.66666667,9.99346367 8.13252067,9.46311967 8.74218733,9.35611967 L9.56770833,8.32356767 C9.600375,8.32856767 9.633,8.33333333 9.66666667,8.33333333 C10.035,8.33333333 10.3333333,8.035 10.3333333,7.66666667 C10.3333333,7.29833333 10.035,7 9.66666667,7 Z M8.966797,10 C8.60013033,10 8.33333333,10.3001303 8.33333333,10.6334637 L8.33333333,15.3333333 C8.33333333,15.7 8.60013033,16 8.966797,16 L13.6998697,16 C14.033203,16 14.3333333,15.6998697 14.3333333,15.3665363 L14.3333333,10.6334637 C14.3333333,10.3001303 14.0665363,10 13.6998697,10 L8.966797,10 Z M9,10.6666667 L13.6666667,10.6666667 L13.6666667,15.3333333 L9,15.3333333 L9,10.6666667 Z" id="Shape"></path>
            </g>
        </g>
    </g>
</svg>