<?xml version="1.0" encoding="UTF-8"?>
<svg width="20px" height="16px" viewBox="0 0 20 16" version="1.1" xmlns="http://www.w3.org/2000/svg" xmlns:xlink="http://www.w3.org/1999/xlink">
    <title>icons / sales</title>
    <g id="Symbols" stroke="none" stroke-width="1" fill="none" fill-rule="evenodd">
        <g id="menu-/-collapse-service" transform="translate(-16.000000, -339.000000)" fill="#3E6799" fill-rule="nonzero">
            <g id="icons-/-sales" transform="translate(16.000000, 339.000000)">
                <path d="M3.02702703,0 C1.3605629,0 0,1.36056303 0,3.02702703 C0,4.69349103 1.3605629,6.05405405 3.02702703,6.05405405 C4.69349103,6.05405405 6.05405405,4.69349103 6.05405405,3.02702703 C6.05405405,1.36056303 4.69349103,0 3.02702703,0 Z M14.2702703,0 L14.2702703,0.864864865 L17.6173985,0.864864865 L14.2550677,4.56249989 L12.5405405,2.84797319 L7.78378378,7.60472995 L6.06587849,5.88682422 L0.139358097,11.3581081 L0.725506768,11.9932432 L6.04222962,7.08614876 L7.78378378,8.82770249 L12.5405405,4.07094573 L14.2854729,5.81587849 L18.1621622,1.55067589 L18.1621622,4.75675676 L19.027027,4.75675676 L19.027027,0 L14.2702703,0 Z M3.02702703,0.864864865 C4.22586032,0.864864865 5.18918919,1.82819373 5.18918919,3.02702703 C5.18918919,4.22586032 4.22586032,5.18918919 3.02702703,5.18918919 C1.82819386,5.18918919 0.864864865,4.22586032 0.864864865,3.02702703 C0.864864865,1.82819373 1.82819386,0.864864865 3.02702703,0.864864865 Z M2.80658785,1.85219589 L2.02364865,2.63513514 L2.63513514,2.63513514 L2.63513514,4.20185816 L3.41891892,4.20185816 L3.41891892,1.85219589 L2.80658785,1.85219589 Z M15.5675676,5.62162162 L15.5675676,16 L16.4324324,16 L16.4324324,5.62162162 L15.5675676,5.62162162 Z M18.1621622,6.48648649 L18.1621622,16 L19.027027,16 L19.027027,6.48648649 L18.1621622,6.48648649 Z M10.3783784,7.78378378 L10.3783784,16 L11.2432432,16 L11.2432432,7.78378378 L10.3783784,7.78378378 Z M12.972973,7.78378378 L12.972973,16 L13.8378378,16 L13.8378378,7.78378378 L12.972973,7.78378378 Z M5.18918919,9.94594595 L5.18918919,16 L6.05405405,16 L6.05405405,9.94594595 L5.18918919,9.94594595 Z M7.78378378,10.3783784 L7.78378378,16 L8.64864865,16 L8.64864865,10.3783784 L7.78378378,10.3783784 Z M2.59459459,12.1081081 L2.59459459,16 L3.45945946,16 L3.45945946,12.1081081 L2.59459459,12.1081081 Z M0,13.8378378 L0,16 L0.864864865,16 L0.864864865,13.8378378 L0,13.8378378 Z" id="Shape"></path>
            </g>
        </g>
    </g>
</svg>